<?xml version="1.0" encoding="UTF-8"?>
<svg width="664px" height="830px" viewBox="0 0 664 830" version="1.1" xmlns="http://www.w3.org/2000/svg" xmlns:xlink="http://www.w3.org/1999/xlink">
    <!-- Generator: Sketch 50.2 (55047) - http://www.bohemiancoding.com/sketch -->
    <title>homepage svg sprite</title>
    <desc>Created with Sketch.</desc>
    <defs></defs>
    <g id="Page-1" stroke="none" stroke-width="1" fill="none" fill-rule="evenodd">
        <g id="homepage-svg-sprite" transform="translate(1.000000, 1.000000)">
            <g id="Safe" transform="translate(571.000000, 546.000000)">
                <ellipse id="Oval" fill="#F0EFF2" fill-rule="nonzero" cx="41.5" cy="43.5167722" rx="41.5" ry="41.4240506"></ellipse>
                <path d="M73.5304545,69.8613924 L73.5304545,42.5753165 C73.512669,39.5573544 71.0565996,37.1202009 68.0330519,37.1202532 L14.8861039,37.1202532 C11.8634417,37.1202168 9.40892242,39.5582223 9.39409091,42.5753165 L9.39409091,69.7591772 C11.6812836,72.5367535 14.3210219,75.0052837 17.2467532,77.1025316 L65.8071429,77.1025316 C68.6804511,75.0275021 71.2759626,72.5940304 73.5304545,69.8613924 Z" id="Shape" fill="#FED825" fill-rule="nonzero"></path>
                <path d="M22.4585065,38.1316456 L22.4585065,19.2541139 C22.4585065,8.7778315 30.9667824,0.285126582 41.4622727,0.285126582 C51.957763,0.285126582 60.466039,8.7778315 60.466039,19.2541139 L60.466039,38.1316456" id="Shape" stroke="#FED825" stroke-width="9.42"></path>
                <ellipse id="Oval" fill="#FFFFFF" fill-rule="nonzero" cx="41.4622727" cy="55.8417722" rx="7.54545455" ry="7.53164557"></ellipse>
                <path d="M38.7459091,62.8731013 C35.8268398,61.7472365 33.9069628,58.9396656 33.9201215,55.8160132 C33.9332803,52.6923608 35.8767433,49.9010051 38.8051948,48.7996835 L38.7728571,48.8642405 C36.9356462,53.346364 36.9356462,58.3694588 38.7728571,62.8515823 L38.7459091,62.8731013 Z" id="Shape" fill="#E1DFE6" fill-rule="nonzero"></path>
                <path d="M41.4622727,61.4905063 L41.4622727,68.3981013" id="Shape" stroke="#FFFFFF" stroke-width="9.33"></path>
            </g>
            <g id="Speedy" transform="translate(26.000000, 653.000000)">
                <circle id="Oval" fill="#F0EFF2" fill-rule="nonzero" transform="translate(42.325400, 41.971972) rotate(-86.185893) translate(-42.325400, -41.971972) " cx="42.3254002" cy="41.9719718" r="38.9205804"></circle>
                <g id="Group" transform="translate(16.000000, 14.933333)">
                    <path d="M26.3466667,5.69333333 C34.84,5.69333333 42.4933333,10.8266667 45.76,18.6666667 C49.0266667,26.5066667 47.16,35.6533333 41.1866667,41.6266667 C32.9733333,49.7466667 19.72,49.6533333 11.5066667,41.5333333 C3.38666667,33.4133333 3.29333333,20.0666667 11.4133333,11.8533333 C15.4266667,7.84 20.7466667,5.6 26.3466667,5.69333333 Z" id="Shape" fill="#4D626C" fill-rule="nonzero"></path>
                    <path d="M26.3466667,0.84 C12.0666667,0.84 0.493333333,12.4133333 0.493333333,26.7866667 C0.493333333,41.0666667 12.0666667,52.7333333 26.44,52.7333333 C40.8133333,52.7333333 52.3866667,41.16 52.3866667,26.7866667 C52.2933333,12.4133333 40.6266667,0.84 26.3466667,0.84" id="Shape" fill="#FED825" fill-rule="nonzero"></path>
                    <path d="M5.44,26.6 L8.42666667,26.6" id="Shape" stroke="#FFFFFF" stroke-width="1.6251" stroke-linecap="round"></path>
                    <path d="M44.1733333,26.6 L47.16,26.6" id="Shape" stroke="#FFFFFF" stroke-width="1.6251" stroke-linecap="round"></path>
                    <path d="M26.3466667,47.5066667 L26.3466667,44.52" id="Shape" stroke="#FFFFFF" stroke-width="1.6251" stroke-linecap="round"></path>
                    <path d="M26.3466667,8.77333333 L26.3466667,5.78666667" id="Shape" stroke="#FFFFFF" stroke-width="1.6251" stroke-linecap="round"></path>
                </g>
                <polyline id="Shape" stroke="#FFFFFF" stroke-width="1.6251" stroke-linecap="round" points="42.3466667 29.0266667 42.3466667 41.3466667 49.2533333 48.72"></polyline>
            </g>
            <g id="Phone" transform="translate(429.000000, 647.000000)">
                <circle id="Oval" fill="#F0EFF2" fill-rule="nonzero" cx="44.9565217" cy="51.0869565" r="44.9565217"></circle>
                <g id="Group-4" transform="translate(44.956522, 30.360248)">
                    <path d="M0.85826087,0.391160388 L0.85826087,35.8893365 L45.0090683,35.8893168 C45.9293319,35.8924205 46.812968,35.5290209 47.464791,34.879389 C48.1166139,34.2297571 48.4829866,33.3473496 48.4829814,32.4270807 L48.4829814,3.84757764 C48.4814364,2.92832096 48.1143798,2.0474149 47.4627255,1.39904625 C46.8110712,0.750677602 45.9283211,0.388078462 45.0090683,0.391180124 L0.85826087,0.391160388 Z" id="Rectangle-2" fill="#FECF25" fill-rule="nonzero"></path>
                    <polygon id="Rectangle-2-2" fill="#FEC625" fill-rule="nonzero" points="0 0.391180124 0 35.8893168 16.2602484 35.8893168 16.2602484 0.391180124"></polygon>
                    <path d="M47.1809938,8.17391304 L0.85826087,8.17391304" id="Line" stroke="#FFFFFF" stroke-width="2.97" stroke-linecap="square"></path>
                    <path d="M47.1809938,12.5119255 L0.85826087,12.4009938" id="Line-Copy" stroke="#FFFFFF" stroke-width="2.97" stroke-linecap="square"></path>
                    <path d="M30.2960248,20.3004969 L35.4922981,20.3004969 C36.4115527,20.3004956 37.2930719,20.6660672 37.9425352,21.3166257 C38.5919985,21.9671842 38.9560843,22.8493182 38.9545342,23.7685714 C38.9545342,25.6807116 37.4044383,27.2308075 35.4922981,27.2308075 L30.2960248,27.2308075 C28.3943442,27.2148021 26.8602771,25.6703169 26.8571429,23.7685714 C26.8570754,21.8645495 28.3920703,20.316524 30.2960248,20.3004969 Z" id="Rectangle-5" fill="#FFFFFF" fill-rule="nonzero"></path>
                </g>
                <path d="M53.8602484,0 L14.2284472,0 C11.3038079,-1.7908251e-16 8.93291925,2.37088862 8.93291925,5.29552795 L8.93291925,77.9849689 C20.4491262,93.4083582 40.5064727,99.7889607 58.8171429,93.8540373 C59.0375958,93.2637349 59.1522289,92.6391825 59.1557764,92.0090683 L59.1557764,5.29552795 C59.1557764,2.37088862 56.7848878,1.7908251e-16 53.8602484,0 Z" id="Shape" fill="#FED825" fill-rule="nonzero"></path>
                <rect id="Rectangle-path" fill="#F0EFF2" fill-rule="nonzero" x="11.0289441" y="11.0990062" width="45.9724224" height="67.9952795"></rect>
                <polygon id="Shape" fill="#FFFFFF" fill-rule="nonzero" points="57.0013665 79.0942857 11.0289441 79.0942857 33.3612422 11.0990062 57.0013665 11.0990062"></polygon>
                <circle id="Oval" fill="#FEBD25" fill-rule="nonzero" cx="33.7699379" cy="87.408323" r="4.60074534"></circle>
                <rect id="Rectangle-path" fill="#FEBD25" fill-rule="nonzero" x="28.3985093" y="4.7" width="11.7762733" height="2.39962733" rx="1.19981366"></rect>
            </g>
            <g id="start-talking-2-copy" transform="translate(561.000000, 648.000000)">
                <ellipse id="Oval" fill="#F0EFF2" fill-rule="nonzero" cx="50.722449" cy="49.2107407" rx="44.5238095" ry="44.6790123"></ellipse>
                <path d="M50.3061224,13.8737037 C53.4517007,13.8737037 55.9959184,10.7693827 55.9959184,6.93975309 C55.9959184,3.11012346 55.1690476,0 50.3061224,0 C45.4431973,0 44.6221088,3.10432099 44.6221088,6.96296296 C44.6221088,10.8216049 47.1663265,13.9259259 50.3061224,13.9259259 L50.3061224,13.8737037 Z" id="Shape-Copy-4" fill="#FED825" fill-rule="nonzero"></path>
                <path d="M50.3061224,13.8737037 C53.4517007,13.8737037 55.9959184,10.7693827 55.9959184,6.93975309 C55.9959184,3.11012346 55.1690476,0 50.3061224,0 L50.5952381,0.452592593 C53.2285083,4.56878341 53.1141907,9.87554804 50.3061224,13.8737037 Z" id="Shape-Copy-4-2" fill="#FECF25" fill-rule="nonzero"></path>
                <path d="M61.2,24.254321 C61.0959184,17.5814815 60.2227891,15.6666667 53.5789116,14.5061728 C53.5789116,14.5061728 52.6479592,15.7014815 50.4680272,15.7014815 C48.2880952,15.7014815 47.3513605,14.5061728 47.3513605,14.5061728 C40.7768707,15.695679 39.8343537,17.5698765 39.7360544,24.068642 C39.7360544,24.5966667 39.7360544,24.6488889 39.7360544,24.5676543 C39.7360544,24.6779012 39.7360544,24.8925926 39.7360544,25.2639506 C39.7360544,25.2639506 41.3146259,28.4669136 50.4795918,28.4669136 C59.6445578,28.4669136 61.2231293,25.2639506 61.2231293,25.2639506 L61.2231293,24.7185185 C61.2231293,24.7591358 61.2231293,24.6837037 61.2231293,24.254321 L61.2,24.254321 Z" id="Shape-Copy" fill="#FED825" fill-rule="nonzero"></path>
                <path d="M50.4680272,28.4320988 C59.6272109,28.4320988 61.2115646,25.2291358 61.2115646,25.2291358 L61.2115646,24.7185185 C61.2115646,24.7591358 61.2115646,24.6837037 61.2115646,24.254321 C61.0959184,17.5814815 60.2227891,15.6666667 53.5789116,14.5061728 C56.0982163,19.1937857 54.8760672,25.0216825 50.6877551,28.2928395 L50.4680272,28.4320988 Z" id="Shape-Copy-2" fill="#FECF25" fill-rule="nonzero"></path>
                <path d="M50.2482993,70.6160494 C54.7816327,70.6160494 58.4591837,66.1307407 58.4591837,60.5951852 C58.4591837,55.0596296 57.244898,50.5801235 50.2482993,50.5801235 C43.2517007,50.5801235 42.0316327,55.0654321 42.0316327,60.5951852 C42.0316327,66.1249383 45.7091837,70.6160494 50.2482993,70.6160494 Z" id="Shape-Copy-4-3" fill="#FED825" fill-rule="nonzero"></path>
                <path d="M50.2482993,70.6160494 C54.7816327,70.6160494 58.4591837,66.1307407 58.4591837,60.5951852 C58.4591837,55.0596296 57.244898,50.5801235 50.2482993,50.5801235 L50.6646259,51.23 C54.4573271,57.1785363 54.2928572,64.8369981 50.2482993,70.6160494 Z" id="Shape-Copy-4-4" fill="#FECF25" fill-rule="nonzero"></path>
                <path d="M65.9646259,85.5980247 C65.8085034,75.9659259 64.5595238,73.2155556 54.9782313,71.4806173 C54.9782313,71.4806173 53.6251701,73.221358 50.4795918,73.221358 C47.3340136,73.221358 45.9809524,71.4806173 45.9809524,71.4806173 C36.4921769,73.221358 35.1622449,75.9020988 34.9945578,85.2904938 C34.9945578,86.0564198 34.9945578,86.097037 34.9945578,86.0041975 L34.9945578,87.037037 C34.9945578,87.037037 37.307483,91.6790123 50.5085034,91.6790123 C63.7095238,91.6790123 66.022449,87.037037 66.022449,87.037037 L66.022449,86.2885185 C66.0027026,86.0645939 66.0027026,85.8393567 66.022449,85.6154321 L65.9646259,85.5980247 Z" id="Shape-Copy-3" fill="#FED825" fill-rule="nonzero"></path>
                <path d="M50.4680272,91.6383951 C63.6979592,91.6383951 65.9819728,86.9964198 65.9819728,86.9964198 L65.9819728,86.2479012 C65.9622265,86.0239766 65.9622265,85.7987394 65.9819728,85.5748148 C65.8258503,75.942716 64.5768707,73.1923457 54.9955782,71.4574074 C58.6274444,78.2303492 56.8610517,86.6444459 50.814966,91.3714815 L50.4680272,91.6383951 Z" id="Shape-Copy-4-5" fill="#FECF25" fill-rule="nonzero"></path>
                <path d="M90.2965986,44.0349383 C93.4363946,44.0349383 95.9806122,40.9306173 95.9806122,37.0719753 C95.9806122,33.2133333 95.1479592,30.1090123 90.2965986,30.1090123 C85.4452381,30.1090123 84.6068027,33.2133333 84.6068027,37.0719753 C84.6068027,40.9306173 87.1510204,44.0349383 90.2965986,44.0349383 Z" id="Shape-Copy-4-6" fill="#FED825" fill-rule="nonzero"></path>
                <path d="M90.2965986,44.0349383 C93.4363946,44.0349383 95.9806122,40.9306173 95.9806122,37.0719753 C95.9806122,33.2133333 95.1479592,30.1090123 90.2965986,30.1090123 L90.579932,30.5616049 C93.2117379,34.6775242 93.099748,39.9823355 90.2965986,43.982716 L90.2965986,44.0349383 Z" id="Shape-Copy-4-7" fill="#FECF25" fill-rule="nonzero"></path>
                <path d="M101.190476,54.4155556 C101.086395,47.742716 100.219048,45.8395062 93.5751701,44.6325926 C93.5751701,44.6325926 92.6384354,45.8337037 90.4585034,45.8337037 C88.2785714,45.8337037 87.3129252,44.6325926 87.3129252,44.6325926 C80.7442177,45.8279012 79.7959184,47.7020988 79.697619,54.2008642 C79.697619,54.7288889 79.697619,54.7811111 79.697619,54.6940741 C79.697619,54.8101235 79.697619,55.0248148 79.697619,55.3961728 C79.697619,55.3961728 81.2761905,58.5991358 90.4411565,58.5991358 C99.6061224,58.5991358 101.190476,55.3961728 101.190476,55.3961728 L101.190476,54.8797531 C101.190476,54.9145679 101.190476,54.8449383 101.190476,54.4155556 Z" id="Shape-Copy-5" fill="#FED825" fill-rule="nonzero"></path>
                <path d="M90.4469388,58.6049383 C99.6061224,58.6049383 101.190476,55.4019753 101.190476,55.4019753 L101.190476,54.8855556 C101.190476,54.9203704 101.190476,54.8507407 101.190476,54.421358 C101.086395,47.7485185 100.219048,45.8453086 93.5751701,44.6383951 C96.0902543,49.328499 94.8689102,55.1550084 90.6840136,58.4308642 L90.4469388,58.6049383 Z" id="Shape-Copy-6" fill="#FECF25" fill-rule="nonzero"></path>
                <path d="M10.5931973,44.0349383 C13.7329932,44.0349383 16.2829932,40.9306173 16.2829932,37.0719753 C16.2829932,33.2133333 15.4445578,30.1090123 10.5931973,30.1090123 C5.74183673,30.1090123 4.90340136,33.2133333 4.90340136,37.0719753 C4.90340136,40.9306173 7.45340136,44.0349383 10.5931973,44.0349383 Z" id="Shape-Copy-4-8" fill="#FED825" fill-rule="nonzero"></path>
                <path d="M10.5931973,44.0349383 C13.7329932,44.0349383 16.2829932,40.9306173 16.2829932,37.0719753 C16.2829932,33.2133333 15.4445578,30.1090123 10.5931973,30.1090123 L10.8823129,30.5616049 C13.512401,34.6786946 13.3981251,39.9835244 10.5931973,43.982716 L10.5931973,44.0349383 Z" id="Shape-Copy-4-9" fill="#FECF25" fill-rule="nonzero"></path>
                <path d="M21.4755102,54.4155556 C21.3945578,47.742716 20.5040816,45.8395062 13.877551,44.6325926 C13.877551,44.6325926 12.9408163,45.8337037 10.7608844,45.8337037 C8.58095238,45.8337037 7.65,44.6325926 7.65,44.6325926 C1.05816327,45.8395062 0.13877551,47.7020988 0,54.2008642 C0,54.7288889 0,54.7811111 0,54.6940741 L0,55.3961728 C0,55.3961728 1.58435374,58.6049383 10.7435374,58.6049383 C19.9027211,58.6049383 21.4870748,55.4019753 21.4870748,55.4019753 C21.4870748,55.1640741 21.4870748,54.9958025 21.4870748,54.8855556 C21.473928,54.7311043 21.473928,54.5758093 21.4870748,54.421358 L21.4755102,54.4155556 Z" id="Shape-Copy-7" fill="#FED825" fill-rule="nonzero"></path>
                <path d="M10.7435374,58.6049383 C19.9085034,58.6049383 21.4870748,55.4019753 21.4870748,55.4019753 C21.4870748,55.1640741 21.4870748,54.9958025 21.4870748,54.8855556 C21.473928,54.7311043 21.473928,54.5758093 21.4870748,54.421358 C21.3945578,47.742716 20.5040816,45.8395062 13.877551,44.6325926 C16.4001751,49.3216032 15.1777531,55.1532549 10.9863946,58.4250617 L10.7435374,58.6049383 Z" id="Shape-Copy-8" fill="#FECF25" fill-rule="nonzero"></path>
                <g id="Group" transform="translate(24.285714, 36.555556)" stroke="#FECF25" stroke-linecap="round" stroke-width="2.68">
                    <path d="M37.9319728,12.0633333 L51.7343537,7.13703704" id="Line"></path>
                    <path d="M14.1146259,12.0633333 L0.312244898,7.13703704" id="Line-Copy-2"></path>
                    <path d="M25.7544218,7.7637037 L25.7544218,0.0986419753" id="Line-2"></path>
                </g>
            </g>
            <g id="start-talking-" transform="translate(295.000000, 649.000000)" fill-rule="nonzero">
                <ellipse id="Oval" fill="#F0EFF2" cx="45" cy="47.9564151" rx="45" ry="45.0377358"></ellipse>
                <path d="M44.8246753,20.9045283 C49.5701299,20.9045283 53.4155844,16.225283 53.4155844,10.4522642 C53.4155844,4.67924528 52.1532468,0 44.8246753,0 C37.4961039,0 36.2337662,4.67924528 36.2337662,10.4522642 C36.2337662,16.225283 40.0733766,20.9045283 44.8246753,20.9045283 Z" id="Shape-Copy-4" fill="#FED825"></path>
                <path d="M44.8246753,20.9045283 C49.5701299,20.9045283 53.4155844,16.225283 53.4155844,10.4522642 C53.4155844,4.67924528 52.1532468,0 44.8246753,0 L45.2571429,0.678490566 C49.2336626,6.88187649 49.0627114,14.8770784 44.8246753,20.9045283 Z" id="Shape-Copy-4-2" fill="#FECF25"></path>
                <path d="M61.2642857,36.5449057 C61.1064935,26.4903774 59.7915584,23.6243396 49.7571429,21.8111321 C49.7571429,21.8111321 48.3428571,23.6126415 45.0818182,23.6126415 C41.8207792,23.6126415 40.4064935,21.8111321 40.4064935,21.8111321 C30.4714286,23.6009434 29.0863636,26.4260377 28.9051948,36.2173585 C28.9051948,37.0186792 28.9051948,37.0596226 28.9051948,36.9660377 C28.9051948,37.1415094 28.9051948,37.4632075 28.9051948,38.024717 C28.9051948,38.024717 31.2896104,42.8443396 45.1344156,42.8443396 C58.9792208,42.8443396 61.2818182,38.0188679 61.2818182,38.0188679 L61.2818182,37.2409434 C61.2818182,37.299434 61.2818182,37.1883019 61.2818182,36.5449057 L61.2642857,36.5449057 Z" id="Shape-Copy" fill="#FED825"></path>
                <path d="M45.0525974,42.8443396 C58.8915584,42.8443396 61.2818182,38.024717 61.2818182,38.024717 L61.2818182,37.2409434 C61.2818182,37.299434 61.2818182,37.1883019 61.2818182,36.5449057 C61.124026,26.4903774 59.8090909,23.6243396 49.7746753,21.8111321 C53.5792576,28.8760422 51.731518,37.6576933 45.4032468,42.5869811 L45.0525974,42.8443396 Z" id="Shape-Copy-2" fill="#FECF25"></path>
                <path d="M20.5422078,64.2343396 C25.2876623,64.2343396 29.1331169,59.5550943 29.1331169,53.7820755 C29.1331169,48.0090566 27.8707792,43.3298113 20.5422078,43.3298113 C13.2136364,43.3298113 11.9454545,48.0090566 11.9454545,53.8113208 C11.9454545,59.6135849 15.7792208,64.2343396 20.5422078,64.2343396 Z" id="Shape-Copy-4-3" fill="#FED825"></path>
                <path d="M20.5422078,64.2343396 C25.2876623,64.2343396 29.1331169,59.5550943 29.1331169,53.7820755 C29.1331169,48.0090566 27.8707792,43.3298113 20.5422078,43.3298113 L20.9746753,44.0083019 C24.9511951,50.2116878 24.7802439,58.2068898 20.5422078,64.2343396 Z" id="Shape-Copy-4-4" fill="#FECF25"></path>
                <path d="M68.7272727,64.8016981 C73.4727273,64.8016981 77.324026,60.1224528 77.324026,54.349434 C77.324026,48.5764151 76.0558442,43.8971698 68.7272727,43.8971698 C61.3987013,43.8971698 60.1305195,48.5764151 60.1305195,54.349434 C60.1305195,60.1224528 63.9818182,64.8016981 68.7272727,64.8016981 Z" id="Shape-Copy-4-5" fill="#FED825"></path>
                <path d="M68.7272727,64.8016981 C73.4727273,64.8016981 77.324026,60.1224528 77.324026,54.349434 C77.324026,48.5764151 76.0558442,43.8971698 68.7272727,43.8971698 L69.1655844,44.5756604 C73.1403682,50.7802263 72.9671065,58.7754471 68.7272727,64.8016981 Z" id="Shape-Copy-4-6" fill="#FECF25"></path>
                <path d="M36.9818182,79.874717 C36.824026,69.8201887 35.5149351,66.9541509 25.4746753,65.1409434 C25.4746753,65.1409434 24.0662338,66.9424528 20.7701299,66.9424528 C17.474026,66.9424528 16.0948052,65.1409434 16.0948052,65.1409434 C10.3675325,66.1703774 7.48051948,67.5566038 6.03116883,70.4050943 C9.68489146,76.740448 14.8184555,82.0950708 20.9922078,86.0103774 L21.225974,86.1566038 C34.6675325,86.0630189 37.0051948,81.3428302 37.0051948,81.3428302 L37.0051948,80.5590566 C36.9993506,80.6292453 36.9935065,80.5181132 36.9818182,79.874717 Z" id="Shape" fill="#FED825"></path>
                <path d="M36.9993506,81.3545283 L36.9993506,80.5707547 C36.9993506,80.6292453 36.9993506,80.5181132 36.9993506,79.874717 C36.8415584,69.8201887 35.5324675,66.9541509 25.4922078,65.1409434 C29.2967901,72.2058535 27.4490504,80.9875046 21.1207792,85.9167925 L20.9805195,86.0220755 L21.2142857,86.1683019 C34.6558442,86.074717 36.9993506,81.3545283 36.9993506,81.3545283 Z" id="Shape" fill="#FECF25"></path>
                <path d="M73.6363636,65.7024528 C73.6363636,65.7024528 72.2279221,67.5039623 68.9318182,67.5039623 C65.6357143,67.5039623 64.2564935,65.7024528 64.2564935,65.7024528 C54.3506494,67.4981132 52.9305195,70.3173585 52.7493506,80.1320755 C52.7721963,80.3811115 52.7721963,80.6317187 52.7493506,80.8807547 L52.7493506,81.9335849 C52.7493506,81.9335849 55.0168831,86.5075472 67.9441558,86.7473585 C69.2220779,85.9674843 70.461039,85.1486164 71.661039,84.2907547 C76.5424964,80.6975926 80.6541342,76.1608547 83.7525974,70.9490566 C82.2448052,68.100566 79.3577922,66.7318868 73.6363636,65.7024528 Z" id="Shape" fill="#FED825"></path>
                <path d="M73.6363636,65.7024528 C76.8747171,71.7179122 76.0580911,79.1109652 71.5850649,84.2732075 C76.4665223,80.6800454 80.5781602,76.1433075 83.6766234,70.9315094 C82.2448052,68.100566 79.3577922,66.7318868 73.6363636,65.7024528 Z" id="Shape" fill="#FECF25"></path>
            </g>
            <g id="support_icon">
                <g id="support-icon">
                    <g>
                        <path d="M106.7,38.8 C106.7,45.8 104.3,52.3 99.6,58.3 C94.9,64.3 88.4,69 80.2,72.4 C72,75.8 63,77.6 53.4,77.6 C49.1,77.6 44.6,77.2 40.1,76.4 C33.8,80.8 26.8,84.1 19,86.1 C17.2,86.6 15,87 12.5,87.3 L12.3,87.3 C11.7,87.3 11.2,87.1 10.7,86.7 C10.2,86.3 9.9,85.8 9.8,85.1 C9.7,84.9 9.7,84.8 9.7,84.6 C9.7,84.4 9.7,84.3 9.7,84.1 C9.7,83.9 9.8,83.8 9.9,83.6 C10,83.4 10,83.3 10.1,83.2 C10.2,83.1 10.2,83 10.4,82.8 C10.6,82.6 10.6,82.5 10.7,82.4 C10.8,82.3 10.9,82.2 11,82 C11.2,81.8 11.3,81.7 11.3,81.7 C11.6,81.4 12.1,80.8 13,79.8 C13.9,78.8 14.6,78.1 15,77.6 C15.4,77.1 16,76.3 16.7,75.4 C17.4,74.5 18.1,73.5 18.6,72.5 C19.1,71.5 19.6,70.4 20.2,69.2 C13.9,65.6 9,61.1 5.4,55.8 C1.8,50.5 0,44.8 0,38.8 C0,31.8 2.4,25.3 7.1,19.3 C11.8,13.3 18.4,8.7 26.6,5.2 C34.8,1.7 43.7,0 53.4,0 C63.1,0 72,1.7 80.2,5.2 C88.4,8.7 94.9,13.4 99.6,19.3 C104.3,25.3 106.7,31.8 106.7,38.8 Z M130.4,75.2 C126.8,80.5 121.9,84.9 115.6,88.6 C116.1,89.8 116.6,90.9 117.2,91.9 C117.7,92.9 118.4,93.9 119.1,94.8 C119.8,95.7 120.4,96.5 120.8,97 C121.2,97.5 121.9,98.3 122.8,99.2 C123.7,100.2 124.3,100.8 124.5,101.1 C124.6,101.2 124.7,101.3 124.8,101.4 C124.9,101.5 125.1,101.7 125.1,101.8 C125.2,101.9 125.3,102 125.4,102.2 C125.5,102.4 125.6,102.5 125.7,102.6 C125.8,102.7 125.8,102.8 125.9,103 C126,103.2 126,103.3 126.1,103.5 C126.1,103.7 126.1,103.8 126.1,104 C126.1,104.2 126.1,104.3 126,104.5 C125.8,105.2 125.5,105.8 125,106.2 C124.5,106.6 123.9,106.8 123.3,106.7 C120.8,106.3 118.6,105.9 116.8,105.5 C109,103.5 102,100.2 95.7,95.8 C91.2,96.6 86.7,97 82.4,97 C68.7,97 56.8,93.7 46.6,87 C49.5,87.2 51.8,87.3 53.3,87.3 C61.4,87.3 69.2,86.2 76.7,83.9 C84.2,81.6 90.8,78.4 96.7,74.1 C103,69.5 107.9,64.1 111.3,58 C114.7,51.9 116.4,45.5 116.4,38.8 C116.4,34.9 115.8,31.1 114.7,27.3 C121.2,30.9 126.4,35.4 130.2,40.8 C134,46.2 135.9,52 135.9,58.2 C135.8,64.3 134,69.9 130.4,75.2 Z" id="_xF086_" stroke="#FFFFFF" stroke-width="2"></path>
                        <path d="M130.4,75.2 C126.8,80.5 121.9,84.9 115.6,88.6 C116.1,89.8 116.6,90.9 117.2,91.9 C117.7,92.9 118.4,93.9 119.1,94.8 C119.8,95.7 120.4,96.5 120.8,97 C121.2,97.5 121.9,98.3 122.8,99.2 C123.7,100.2 124.3,100.8 124.5,101.1 C124.6,101.2 124.7,101.3 124.8,101.4 C124.9,101.5 125.1,101.7 125.1,101.8 C125.2,101.9 125.3,102 125.4,102.2 C125.5,102.4 125.6,102.5 125.7,102.6 C125.8,102.7 125.8,102.8 125.9,103 C126,103.2 126,103.3 126.1,103.5 C126.1,103.7 126.1,103.8 126.1,104 C126.1,104.2 126.1,104.3 126,104.5 C125.8,105.2 125.5,105.8 125,106.2 C124.5,106.6 123.9,106.8 123.3,106.7 C120.8,106.3 118.6,105.9 116.8,105.5 C109,103.5 102,100.2 95.7,95.8 C91.2,96.6 86.7,97 82.4,97 C68.7,97 56.8,93.7 46.6,87 C49.5,87.2 51.8,87.3 53.3,87.3 C61.4,87.3 69.2,86.2 76.7,83.9 C84.2,81.6 90.8,78.4 96.7,74.1 C103,69.5 107.9,64.1 111.3,58 C114.7,51.9 116.4,45.5 116.4,38.8 C116.4,34.9 115.8,31.1 114.7,27.3 C121.2,30.9 126.4,35.4 130.2,40.8 C134,46.2 135.9,52 135.9,58.2 C135.8,64.3 134,69.9 130.4,75.2 Z" id="Path2" fill="#FFFFFF" fill-rule="nonzero"></path>
                    </g>
                </g>
            </g>
            <g id="cart" transform="translate(196.000000, 794.000000)" fill="#FF5ED9" fill-rule="nonzero">
                <path d="M5.1,11.3 L13.7,11.3 C14.7,11.3 15.5,10.5 15.5,9.5 L15.5,5.9 C15.5,5.9 15.5,5.9 15.5,5.9 C15.5,5.9 15.5,5.9 15.5,5.9 C15.5,5.9 15.5,5.9 15.5,5.9 C15.5,5.9 15.5,5.9 15.5,5.9 C15.5,5.9 15.5,5.9 15.5,5.9 C15.5,5.9 15.5,5.9 15.5,5.9 C15.5,5.9 15.5,5.9 15.5,5.9 C15.5,5.9 15.5,5.9 15.5,5.9 C15.5,5.9 15.5,5.9 15.5,5.9 C15.5,5.9 15.5,5.9 15.5,5.9 C15.5,5.9 15.5,5.9 15.5,5.9 C15.5,5.9 15.5,5.9 15.5,5.9 C15.5,5.9 15.5,5.9 15.5,5.9 C15.5,5.9 15.5,5.9 15.5,5.9 C15.5,5.9 15.5,5.9 15.5,5.9 C15.5,5.9 15.5,5.9 15.5,5.9 C15.5,5.9 15.5,5.9 15.5,5.9 C15.5,5.9 15.5,5.9 15.5,5.9 L4.2,4 L4.2,2.4 C4.2,2.4 4.2,2.4 4.2,2.4 C4.2,2.4 4.2,2.4 4.2,2.4 C4.2,2.4 4.2,2.4 4.2,2.4 C4.2,2.4 4.2,2.4 4.2,2.4 C4.2,2.4 4.2,2.4 4.2,2.4 C4.2,2.4 4.2,2.4 4.2,2.4 C4.2,2.4 4.2,2.4 4.2,2.4 C4.2,2.4 4.2,2.4 4.2,2.4 C4.2,2.4 4.2,2.4 4.2,2.4 C4.2,2.4 4.2,2.4 4.2,2.4 C4.2,2.4 4.2,2.4 4.2,2.4 C4.2,2.4 4.2,2.4 4.2,2.4 L1.6,1 C1.4,0.9 1.1,1 1,1.3 C0.9,1.6 1,1.8 1.2,1.9 L3.3,2.8 L3.3,12.3 C3.3,13.2 4,13.9 4.8,14.1 C4.3,14.9 4.6,16 5.4,16.5 C5.7,16.7 6,16.7 6.3,16.7 C7.3,16.7 8.1,15.9 8.1,14.9 C8.1,14.6 8,14.3 7.9,14 L11.8,14 C11.3,14.8 11.6,15.9 12.4,16.4 C12.7,16.6 13,16.6 13.3,16.6 C14.3,16.6 15.1,15.8 15.1,14.8 C15.1,13.8 14.3,13 13.3,13 L5.1,13 C4.6,13 4.2,12.6 4.2,12.1 L4.2,11 C4.5,11.2 4.8,11.3 5.1,11.3 Z M7.3,14.9 C7.3,15.4 6.9,15.8 6.4,15.8 C5.9,15.8 5.5,15.4 5.5,14.9 C5.5,14.4 5.9,14 6.4,14 C6.9,14 7.3,14.4 7.3,14.9 Z M14.2,14.9 C14.2,15.4 13.8,15.8 13.3,15.8 C12.8,15.8 12.4,15.4 12.4,14.9 C12.4,14.4 12.8,14 13.3,14 C13.8,14 14.2,14.4 14.2,14.9 Z M13.8,10.4 L5.1,10.4 C4.6,10.4 4.2,10 4.2,9.5 L4.2,4.8 L14.6,6.2 L14.6,9.4 C14.7,10 14.3,10.4 13.8,10.4 C13.8,10.4 13.8,10.4 13.8,10.4 Z" id="Shape"></path>
            </g>
            <g id="talking-icon" transform="translate(23.000000, 329.000000)" fill-rule="nonzero">
                <circle id="Oval" fill="#F0EFF2" cx="45" cy="45" r="45"></circle>
                <path d="M86.85,8.25779221 L17.3045455,8.25779221 C16.5883806,8.27615215 15.9088713,8.57837949 15.415624,9.09793336 C14.9223767,9.61748722 14.6558322,10.3117698 14.6746753,11.0279221 L14.6746753,20.6766234 L74.4779221,60.8727273 L86.85,60.9311688 C87.5661648,60.9128089 88.2456741,60.6105815 88.7389215,60.0910277 C89.2321688,59.5714738 89.4987132,58.8771912 89.4798701,58.161039 L89.4798701,11.0279221 C89.4987132,10.3117698 89.2321688,9.61748722 88.7389215,9.09793336 C88.2456741,8.57837949 87.5661648,8.27615215 86.85,8.25779221 Z" id="Shape" fill="#E1DFE6"></path>
                <path d="M74.1564935,19.3441558 L4.8974026,19.3441558 C3.36655386,19.3441525 2.12465141,20.5834404 2.12142857,22.1142857 L2.12142857,69.2590909 C2.12465141,70.7899362 3.36655386,72.0292242 4.8974026,72.0292208 L20.1448052,72.0292208 L19.7123377,82.2214286 C20.9664499,83.0781448 22.2636023,83.8700905 23.5987013,84.5941558 L36.7772727,72.0292208 L74.1798701,72.0292208 C75.7097706,72.0292208 76.95,70.7889914 76.95,69.2590909 L76.95,22.1142857 C76.9500263,21.3755333 76.6549674,20.667374 76.1304004,20.1471967 C75.6058333,19.6270193 74.8952196,19.3379216 74.1564935,19.3441558 Z" id="Shape" fill="#FED825"></path>
                <circle id="Oval" fill="#FFFFFF" cx="19.5428571" cy="45.6311688" r="3.07987013"></circle>
                <circle id="Oval" fill="#FFFFFF" cx="39.5532468" cy="45.6311688" r="3.07987013"></circle>
                <circle id="Oval" fill="#FFFFFF" cx="59.5577922" cy="45.6311688" r="3.07987013"></circle>
            </g>
            <g id="plane_icon" transform="translate(286.000000, 222.000000)" fill-rule="nonzero">
                <circle id="Oval" fill="#F0EFF2" cx="60.3" cy="45.09" r="44.91"></circle>
                <g id="Paper_Plane_24_" transform="translate(0.000000, 4.500000)">
                    <g id="Paper_Plane_25_">
                        <polygon id="Bttom_Fold_13_" fill="#E1DFE6" points="45.45 58.77 45.45 78.84 73.8 58.77"></polygon>
                        <polygon id="Fold_13_" fill="#FFFFFF" points="45.45 78.84 33.75 55.44 107.19 0 45.45 58.77"></polygon>
                        <polygon id="Right_Wing_12_" fill="#FED825" points="80.55 78.84 45.45 58.77 107.19 0"></polygon>
                        <polygon id="Left_Wing_12_" fill="#FED825" points="33.75 55.44 0.36 48.78 107.19 0"></polygon>
                    </g>
                </g>
            </g>
            <g id="Phone-icon" transform="translate(159.000000, 221.000000)" fill-rule="nonzero">
                <ellipse id="Oval" fill="#F0EFF2" cx="45" cy="46.4863694" rx="45" ry="45.1210191"></ellipse>
                <path d="M63.7305195,1.73183975e-15 L25.912987,1.73183975e-15 C24.5728037,-0.00155531066 23.2869797,0.531172303 22.3387784,1.48082447 C21.3905771,2.43047665 20.8577913,3.71914153 20.8577922,5.06292994 L20.8577922,84.5579618 C35.4570853,93.8741804 54.0928595,93.9630523 68.7798701,84.7864968 L68.7798701,5.06292994 C68.7798701,2.26675094 66.5191988,1.90305645e-15 63.7305195,1.73183975e-15 Z" id="Shape" fill="#FED825"></path>
                <rect id="Rectangle-path" fill="#F0EFF2" x="22.8564935" y="10.6180892" width="43.8720779" height="65.0563057"></rect>
                <polygon id="Shape" fill="#FFFFFF" points="66.7285714 75.6743949 22.8564935 75.6743949 44.1701299 10.6180892 66.7285714 10.6180892"></polygon>
                <ellipse id="Oval" fill="#FEBD25" cx="44.5616883" cy="84.7513376" rx="4.38896104" ry="4.40076433"></ellipse>
                <rect id="Rectangle-path" fill="#FEBD25" x="39.4363636" y="4.50038217" width="11.2383117" height="2.29707006" rx="1.14853503"></rect>
            </g>
            <g id="Retailer" transform="translate(295.000000, 436.000000)" fill-rule="nonzero">
                <circle id="Oval" fill="#F0EFF2" cx="45" cy="45" r="45"></circle>
                <rect id="Rectangle-path" fill="#FFFFFF" x="15.937013" y="54.9525974" width="12.8746753" height="10.2915584"></rect>
                <path d="M28.8116883,39.5123377 L18.5084416,39.5123377 C17.0882808,39.5123377 15.937013,40.6636054 15.937013,42.0837662 L15.937013,49.8038961 L28.7941558,49.8038961 L28.8116883,39.5123377 Z" id="Shape" fill="#FFFFFF"></path>
                <path d="M46.8350649,49.8038961 L46.8350649,42.0779221 C46.8350649,40.6577613 45.6837971,39.5064935 44.2636364,39.5064935 L33.9603896,39.5064935 L33.9603896,49.8038961 L46.8350649,49.8038961 Z" id="Shape" fill="#FFFFFF"></path>
                <rect id="Rectangle-path" fill="#FFFFFF" x="33.9603896" y="54.9525974" width="12.8746753" height="10.2915584"></rect>
                <path d="M14.1136364,12.2727273 C13.5993506,12.7558442 13.0967532,13.2525974 12.6058442,13.762987 C13.2418495,13.4223182 13.7655524,12.9047048 14.1136364,12.2727273 Z" id="Shape" fill="#F0EFF2"></path>
                <path d="M77.4175325,13.8038961 C76.8857143,13.2545455 76.3480519,12.7227273 75.7928571,12.2025974 C76.1572685,12.890433 76.7244881,13.4494911 77.4175325,13.8038961 Z" id="Shape" fill="#F0EFF2"></path>
                <path d="M57.1383117,72.2337662 L57.1383117,48.5064935 C57.1383117,43.5294755 61.172982,39.4948052 66.15,39.4948052 C71.127018,39.4948052 75.1616883,43.5294755 75.1616883,48.5064935 L75.1616883,72.2337662 L80.8188312,72.2337662 C81.5493506,71.2753247 82.2331169,70.2818182 82.8876623,69.2649351 L82.8876623,32.9844156 L76.8974026,32.9844156 C75.5237619,32.9812024 74.4110054,31.8684459 74.4077922,30.4948052 L74.4077922,24.3409091 L15.5512987,24.3409091 L15.5512987,30.4948052 C15.5480764,31.8707238 14.4317666,32.9844194 13.0558442,32.9844156 L8.21103896,32.9844156 L8.21103896,70.9012987 C8.52662338,71.3454545 8.84805195,71.7954545 9.18116883,72.2337662 L57.1383117,72.2337662 Z M33.9603896,39.5064935 L44.2636364,39.5064935 C45.6837971,39.5064935 46.8350649,40.6577613 46.8350649,42.0779221 L46.8350649,49.8038961 L33.9779221,49.8038961 L33.9603896,39.5064935 Z M33.9603896,54.9467532 L46.8175325,54.9467532 L46.8175325,65.2441558 L33.9603896,65.2441558 L33.9603896,54.9467532 Z M15.937013,42.0779221 C15.937013,41.3959368 16.2079306,40.7418839 16.690167,40.2596475 C17.1724034,39.7774111 17.8264563,39.5064935 18.5084416,39.5064935 L28.8116883,39.5064935 L28.8116883,49.8038961 L15.9545455,49.8038961 L15.937013,42.0779221 Z M15.937013,54.9350649 L28.7941558,54.9350649 L28.7941558,65.2324675 L15.937013,65.2324675 L15.937013,54.9350649 Z" id="Shape" fill="#FED825"></path>
                <path d="M75.1616883,48.5064935 C75.1616883,43.5294755 71.127018,39.4948052 66.15,39.4948052 C61.172982,39.4948052 57.1383117,43.5294755 57.1383117,48.5064935 L57.1383117,72.2337662 L75.1616883,72.2337662 L75.1616883,48.5064935 Z" id="Shape" fill="#FFFFFF"></path>
                <path d="M77.7272727,75.8454545 L12.2727273,75.8454545 C12.7636364,76.3655844 13.2720779,76.8798701 13.7922078,77.3824675 L76.237013,77.3824675 C76.7512987,76.8798701 77.2597403,76.3655844 77.7272727,75.8454545 Z" id="Shape" fill="#FECF25"></path>
                <path d="M75.1616883,72.2337662 L75.1616883,72.9818182 L57.1383117,72.9818182 L57.1383117,72.2337662 L9.18116883,72.2337662 C10.1492189,73.4897616 11.1810957,74.6952434 12.2727273,75.8454545 L77.7272727,75.8454545 C78.8109241,74.6946707 79.8349899,73.489199 80.7954545,72.2337662 L75.1616883,72.2337662 Z" id="Shape" fill="#FECF25"></path>
                <rect id="Rectangle-path" fill="#FECF25" x="57.1383117" y="72.2337662" width="18.0233766" height="1"></rect>
                <path d="M20.6006494,9.67792208 L16.8311688,9.67792208 C15.6751009,9.68925476 14.6828654,10.5039579 14.4467532,11.6357143 C14.3521231,11.856237 14.2407592,12.0691962 14.1136364,12.2727273 C13.7655524,12.9047048 13.2418495,13.4223182 12.6058442,13.762987 C12.3076718,13.9096747 11.9797031,13.9856675 11.6474026,13.9850649 C7.23622412,14.2473425 3.78913548,17.8940398 3.77532468,22.312987 L3.77532468,30.4948052 C3.77853788,31.8684459 4.89129437,32.9812024 6.26493506,32.9844156 L13.0558442,32.9844156 C14.4317666,32.9844194 15.5480764,31.8707238 15.5512987,30.4948052 L15.5512987,19.1571429 C15.5596627,16.3442309 17.8005205,14.0464461 20.6123377,13.9675325 C21.9272727,13.8681818 22.7337662,12.5766234 23.0493506,11.962987 C22.9493557,10.6814647 21.8860176,9.68918501 20.6006494,9.67792208 Z" id="Shape" fill="#FECF25"></path>
                <path d="M78.3116883,14.025974 C77.9989434,14.0258462 77.6899278,13.9580621 77.4058442,13.8272727 C76.7127998,13.4728677 76.1455802,12.9138096 75.7811688,12.225974 C75.6744163,12.0369109 75.5787989,11.8417734 75.4948052,11.6415584 C75.2611705,10.5107095 74.2709042,9.6956255 73.1162338,9.68376623 L69.3409091,9.68376623 C68.0587603,9.69501828 66.9980322,10.6846928 66.8980519,11.962987 C67.2077922,12.5474026 67.9909091,13.8097403 69.2357143,13.9558442 L69.3993506,13.9558442 C72.1453045,13.9654623 74.3689533,16.1891111 74.3785714,18.9350649 L74.3785714,30.4948052 C74.3817846,31.8684459 75.4945411,32.9812024 76.8681818,32.9844156 L83.6883117,32.9844156 C85.0619524,32.9812024 86.1747089,31.8684459 86.1779221,30.4948052 L86.1779221,22.312987 C86.1428296,17.9119647 82.7049149,14.2901497 78.3116883,14.025974 Z" id="Shape" fill="#FECF25"></path>
                <path d="M29.3551948,9.67792208 L25.5857143,9.67792208 C24.4296464,9.68925476 23.4374109,10.5039579 23.2012987,11.6357143 C23.2012987,11.6357143 23.1487013,11.7642857 23.0493506,11.962987 C22.7337662,12.5766234 21.9272727,13.8681818 20.6123377,13.9675325 C17.8005205,14.0464461 15.5596627,16.3442309 15.5512987,19.1571429 L15.5512987,30.4948052 C15.5512987,31.869779 16.6659352,32.9844156 18.0409091,32.9844156 L24.8318182,32.9844156 C26.2054589,32.9812024 27.3182154,31.8684459 27.3214286,30.4948052 L27.3214286,17.1292208 C27.3369391,15.6913065 28.3259982,14.4471616 29.7233766,14.1077922 C30.8454545,14.1077922 31.5409091,12.7168831 31.8155844,12.0214286 C31.7416595,10.7137205 30.6649507,9.68816174 29.3551948,9.67792208 Z" id="Shape" fill="#FFFFFF"></path>
                <path d="M69.4285714,13.95 L69.2649351,13.95 C68.0025974,13.8038961 67.2194805,12.5590909 66.9272727,11.9571429 C66.8693988,11.8535667 66.8186324,11.7461763 66.7753247,11.6357143 C66.5372159,10.5051683 65.5461783,9.69144872 64.3909091,9.67792208 L60.6155844,9.67792208 C59.3091098,9.69082522 58.2348729,10.7114779 58.1551948,12.0155844 C58.4357143,12.711039 59.1428571,14.1077922 60.2649351,14.1077922 C61.6555889,14.4511539 62.6383822,15.6910594 62.6551948,17.1233766 L62.6551948,30.4948052 C62.6551948,31.1550909 62.9174923,31.7883331 63.3843848,32.2552256 C63.8512773,32.7221181 64.4845195,32.9844156 65.1448052,32.9844156 L71.9357143,32.9844156 C73.309355,32.9812024 74.4221115,31.8684459 74.4253247,30.4948052 L74.4253247,18.9292208 C74.4156657,16.1764395 72.1813697,13.9499831 69.4285714,13.95 Z" id="Shape" fill="#FFFFFF"></path>
                <path d="M38.1097403,9.67792208 L34.3402597,9.67792208 C33.1841919,9.68925476 32.1919563,10.5039579 31.9558442,11.6357143 C31.9558442,11.6357143 31.9090909,11.7876623 31.8155844,12.0214286 C31.5409091,12.7168831 30.8454545,14.1077922 29.7233766,14.1077922 C28.3259982,14.4471616 27.3369391,15.6913065 27.3214286,17.1292208 L27.3214286,30.4948052 C27.3246252,31.8661744 28.4338369,32.977996 29.8051948,32.9844156 L36.6019481,32.9844156 C37.9755887,32.9812024 39.0883452,31.8684459 39.0915584,30.4948052 L39.0915584,16.4688312 C39.095798,15.7530248 39.4115641,15.0745542 39.9564935,14.6103896 C40.3461695,14.1262888 40.571359,13.5305603 40.5993506,12.9097403 L40.5993506,12.1675325 C40.5929528,10.7952174 39.4820553,9.68431992 38.1097403,9.67792208 Z" id="Shape" fill="#FECF25"></path>
                <path d="M60.2474026,14.1136364 C59.1253247,14.1136364 58.4181818,12.7168831 58.1376623,12.0214286 C58.05,11.7876623 58.0032468,11.6357143 58.0032468,11.6357143 C57.765138,10.5051683 56.7741004,9.69144872 55.6188312,9.67792208 L51.8435065,9.67792208 C50.4711915,9.68431992 49.3602939,10.7952174 49.3538961,12.1675325 L49.3538961,12.2727273 L49.3538961,12.6350649 C49.3474913,13.3526095 49.5890207,14.0503611 50.0376623,14.6103896 C50.5529443,15.0811924 50.8457714,15.7474802 50.8441558,16.4454545 L50.8441558,30.4714286 C50.8473781,31.8473472 51.963688,32.9610427 53.3396104,32.961039 L60.1246753,32.961039 C61.5005978,32.9610427 62.6169076,31.8473472 62.6201299,30.4714286 L62.6201299,17.1292208 C62.6053722,15.7019891 61.6311024,14.4637546 60.2474026,14.1136364 Z" id="Shape" fill="#FECF25"></path>
                <path d="M50.0376623,14.6103896 C49.5902918,14.0519205 49.3488385,13.3564527 49.3538961,12.6409091 L49.3538961,12.1616883 C49.3474983,10.7893733 48.2366008,9.67847577 46.8642857,9.67207792 L43.088961,9.67207792 C41.716646,9.67847577 40.6057485,10.7893733 40.5993506,12.1616883 L40.5993506,12.8863636 C40.5763081,13.5152712 40.3508405,14.1199345 39.9564935,14.6103896 C39.4131021,15.0732232 39.0974917,15.7492266 39.0915584,16.462987 L39.0915584,30.488961 C39.0947716,31.8626017 40.2075281,32.9753582 41.5811688,32.9785714 L48.3720779,32.9785714 C49.7379242,32.9689562 50.8409834,31.8606817 50.8441558,30.4948052 L50.8441558,16.4688312 C50.8524097,15.762734 50.5590176,15.0866565 50.0376623,14.6103896 Z" id="Shape" fill="#FFFFFF"></path>
            </g>
            <g id="Countries" transform="translate(23.000000, 433.000000)" fill-rule="nonzero">
                <ellipse id="Oval" fill="#F0EFF2" cx="45" cy="49.7846626" rx="45" ry="44.8773006"></ellipse>
                <path d="M73.2681818,14.8794479 C67.1551948,5.8690184 57.2025974,0 45.9116883,0 C35.8480519,0 26.8188312,4.66257669 20.6415584,12.058589 C15.1414585,18.6956368 12.1508656,27.0468773 12.1909091,35.6570552 C12.1909091,54.4880368 30.5649351,81.5484663 40.161039,94.3996933 C44.02424,94.8182073 47.9255273,94.7359277 51.7675325,94.154908 C61.4746753,81.2046012 79.7142857,54.3656442 79.6324675,35.6570552 C79.627423,28.254525 77.4118219,21.021209 73.2681818,14.8794479 Z" id="Shape" fill="#FED825"></path>
                <path d="M73.2681818,14.8794479 C67.1551948,5.8690184 57.2025974,0 45.9116883,0 L45.8590909,94.6386503 C47.8371266,94.6077919 49.8109352,94.4461901 51.7675325,94.154908 C61.4746753,81.2046012 79.7142857,54.3656442 79.6324675,35.6570552 C79.627423,28.254525 77.4118219,21.021209 73.2681818,14.8794479 Z" id="Shape" fill="#FECF25"></path>
                <ellipse id="Oval" fill="#E1DFE6" cx="45.9116883" cy="34.4506135" rx="12.5415584" ry="12.507362"></ellipse>
                <path d="M58.4415584,34.4506135 C58.4415614,27.5475378 52.8336348,21.949685 45.9116883,21.9432515 C42.4461039,21.9432515 38.9980519,28.1736196 38.9980519,34.4273006 C38.9980519,40.6809816 42.4461039,46.9579755 45.9116883,46.9579755 C52.8336348,46.951542 58.4415614,41.3536892 58.4415584,34.4506135 Z" id="Shape" fill="#FFFFFF"></path>
            </g>
            <g id="arrow_down" transform="translate(327.000000, 47.000000)" fill="#0B0033">
                <g id="arrows" transform="translate(12.500000, 6.500000) rotate(270.000000) translate(-12.500000, -6.500000) translate(6.000000, -6.000000)">
                    <polygon id="Shape" points="12.2478364 24.0915293 0.0653494624 12.0453985 12.2478364 5.66669836e-13 12.8789695 0.661228893 1.36645461 12.0453985 12.8789695 23.4298123"></polygon>
                </g>
            </g>
            <g id="arrow_right_blue" transform="translate(600.000000, 34.000000)" fill="#FED825">
                <g id="arrows" transform="translate(11.800000, 20.000000) scale(-1, 1) translate(-11.800000, -20.000000) translate(0.800000, 0.000000)">
                    <polygon id="Shape" points="20.5558094 39.7145211 0.109677419 19.856657 20.5558094 0 21.6150538 1.09002581 2.29335039 19.856657 21.6150538 38.6236905"></polygon>
                </g>
            </g>
            <g id="arrow_left" transform="translate(462.000000, 28.000000)" fill="#FFFFFF">
                <g id="arrows">
                    <polygon id="Shape" points="25.6947618 49.6431513 0.137096774 24.8208212 25.6947618 0 27.0188172 1.36253226 2.86668799 24.8208212 27.0188172 48.2796131"></polygon>
                </g>
            </g>
            <g id="arrow_right" transform="translate(54.000000, 136.000000)" fill="#FFFFFF">
                <g id="arrows" transform="translate(14.419355, 25.000000) scale(-1, 1) translate(-14.419355, -25.000000) translate(0.419355, 0.000000)">
                    <polygon id="Shape" points="25.6947618 49.6431513 0.137096774 24.8208212 25.6947618 0 27.0188172 1.36253226 2.86668799 24.8208212 27.0188172 48.2796131"></polygon>
                </g>
            </g>
            <g id="arrow_up" transform="translate(191.000000, 154.000000)" fill="#FFFFFF">
                <g id="arrow" transform="translate(13.500000, 7.000000) rotate(-90.000000) translate(-13.500000, -7.000000) translate(7.000000, -6.000000)">
                    <polygon id="Shape" transform="translate(6.406810, 12.980415) rotate(180.000000) translate(-6.406810, -12.980415) " points="12.1824869 25.0261795 -3.88578034e-16 12.9800487 12.1824869 0.9346502 12.81362 1.59587909 1.30110515 12.9800487 12.81362 24.3644625"></polygon>
                </g>
            </g>
            <g id="cart_icon" transform="translate(327.000000, 150.000000)" fill="#0B0033">
                <g id="Capa_1">
                    <path d="M5.6984106,14.1443267 L17.5350552,14.1443267 C18.8772185,14.1443267 19.9721413,13.049404 19.9721413,11.7072406 L19.9721413,6.72710817 L19.9721413,6.70944812 L19.9721413,6.67412804 C19.9721413,6.66529801 19.9721413,6.65646799 19.9677263,6.64763797 C19.9677263,6.63880795 19.9633113,6.62556291 19.9633113,6.61673289 C19.9633113,6.60790287 19.9588962,6.59907285 19.9588962,6.59024283 C19.9544812,6.5814128 19.9544812,6.57258278 19.9500662,6.55933775 C19.9456512,6.55050773 19.9456512,6.5416777 19.9412362,6.53284768 C19.9368212,6.52401766 19.9368212,6.51518764 19.9324062,6.50635762 C19.9279912,6.49752759 19.9235762,6.48869757 19.9191611,6.47545254 C19.9147461,6.46662252 19.9103311,6.45779249 19.9059161,6.45337748 C19.9015011,6.44454746 19.8970861,6.43571744 19.8926711,6.42688742 C19.8882561,6.4180574 19.8838411,6.41364238 19.879426,6.40481236 C19.875011,6.39598234 19.866181,6.38715232 19.861766,6.3783223 C19.857351,6.36949227 19.852936,6.36507726 19.844106,6.35624724 C19.8396909,6.34741722 19.8308609,6.34300221 19.8264459,6.33417219 C19.8220309,6.32534216 19.8132009,6.32092715 19.8087859,6.31209713 C19.8043709,6.30326711 19.7955408,6.2988521 19.7911258,6.29443709 C19.7822958,6.28560706 19.7778808,6.28119205 19.7690508,6.27236203 C19.7602208,6.26794702 19.7558057,6.259117 19.7469757,6.25470199 C19.7381457,6.25028698 19.7293157,6.24145695 19.7204857,6.23704194 C19.7116556,6.23262693 19.7072406,6.22821192 19.6984106,6.22379691 C19.6895806,6.2193819 19.6807506,6.21496689 19.6719205,6.20613687 C19.6630905,6.20172185 19.6542605,6.19730684 19.6454305,6.19289183 C19.6366004,6.18847682 19.6277704,6.18406181 19.6189404,6.1796468 C19.6101104,6.17523179 19.6012804,6.17081678 19.5924503,6.16640177 C19.5836203,6.16198675 19.5747903,6.16198675 19.5659603,6.15757174 C19.5571302,6.15315673 19.5438852,6.14874172 19.5350552,6.14874172 C19.5262252,6.14874172 19.5173951,6.14432671 19.5129801,6.14432671 C19.4997351,6.1399117 19.4909051,6.1399117 19.47766,6.1399117 C19.473245,6.1399117 19.46883,6.13549669 19.46,6.13549669 L4.45779249,4.06485651 L4.45779249,1.97214128 C4.45779249,1.95006623 4.45779249,1.92799117 4.45337748,1.91033113 C4.45337748,1.90591611 4.45337748,1.9015011 4.44896247,1.89267108 C4.44896247,1.87942605 4.44454746,1.86618102 4.44454746,1.85293598 C4.44013245,1.83969095 4.44013245,1.83086093 4.43571744,1.81761589 C4.43571744,1.80878587 4.43130243,1.80437086 4.43130243,1.79554084 C4.42688742,1.78229581 4.42247241,1.76905077 4.4180574,1.75580574 C4.4180574,1.75139073 4.41364238,1.74256071 4.41364238,1.7381457 C4.40922737,1.72490066 4.40481236,1.71607064 4.39598234,1.70282561 C4.39156733,1.6984106 4.39156733,1.68958057 4.38715232,1.68516556 C4.38273731,1.67633554 4.3783223,1.66750552 4.36949227,1.6586755 C4.36507726,1.64984547 4.36066225,1.64543046 4.35624724,1.63660044 C4.35183223,1.62777042 4.34741722,1.62335541 4.34300221,1.61452539 C4.3385872,1.60569536 4.32975717,1.59686534 4.32534216,1.58803532 C4.32092715,1.58362031 4.31651214,1.5792053 4.31209713,1.57479029 C4.30326711,1.56596026 4.29443709,1.55713024 4.28560706,1.54830022 C4.28119205,1.54388521 4.27677704,1.5394702 4.27236203,1.53505519 C4.26353201,1.52622517 4.25470199,1.51739514 4.24145695,1.50856512 C4.23704194,1.50415011 4.22821192,1.4997351 4.22379691,1.49532009 C4.21496689,1.48649007 4.20613687,1.48207506 4.19730684,1.47324503 C4.18406181,1.46441501 4.17081678,1.45558499 4.16198675,1.45116998 C4.15757174,1.44675497 4.15315673,1.44675497 4.14874172,1.44233996 C4.13108168,1.43350993 4.10900662,1.42467991 4.09134658,1.41584989 L0.837483444,0.047196468 C0.532847682,-0.0808388521 0.18406181,0.0604415011 0.0560264901,0.365077263 C-0.07200883,0.669713024 0.0692715232,1.0184989 0.373907285,1.14653422 L3.2613245,2.36507726 L3.2613245,5.06706402 L3.2613245,5.49532009 L3.2613245,8.7800883 L3.2613245,11.7160706 L3.2613245,15.4246799 C3.2613245,16.660883 4.18847682,17.6851656 5.38494481,17.8396909 C5.16860927,18.2017219 5.04057395,18.6255629 5.04057395,19.075894 C5.04057395,20.4048124 6.12225166,21.4820751 7.44675497,21.4820751 C8.77125828,21.4820751 9.85293598,20.4003974 9.85293598,19.075894 C9.85293598,18.6343929 9.73373068,18.2149669 9.52181015,17.861766 L14.8816336,17.861766 C14.669713,18.2193819 14.5505077,18.6343929 14.5505077,19.075894 C14.5505077,20.4048124 15.6321854,21.4820751 16.9566887,21.4820751 C18.2811921,21.4820751 19.3628698,20.4003974 19.3628698,19.075894 C19.3628698,17.7513907 18.2811921,16.669713 16.9566887,16.669713 L5.6984106,16.669713 C5.00966887,16.669713 4.45337748,16.1090066 4.45337748,15.4246799 L4.45337748,13.8087859 C4.81540839,14.0207064 5.24366446,14.1443267 5.6984106,14.1443267 L5.6984106,14.1443267 L5.6984106,14.1443267 Z M8.66529801,19.071479 C8.66529801,19.7425607 8.11783664,20.2856071 7.45116998,20.2856071 C6.78450331,20.2856071 6.23704194,19.7381457 6.23704194,19.071479 C6.23704194,18.4048124 6.78450331,17.857351 7.45116998,17.857351 C8.11783664,17.857351 8.66529801,18.4003974 8.66529801,19.071479 L8.66529801,19.071479 L8.66529801,19.071479 Z M18.1752318,19.071479 C18.1752318,19.7425607 17.6277704,20.2856071 16.9611038,20.2856071 C16.2944371,20.2856071 15.7469757,19.7381457 15.7469757,19.071479 C15.7469757,18.4048124 16.2944371,17.857351 16.9611038,17.857351 C17.6277704,17.857351 18.1752318,18.4003974 18.1752318,19.071479 L18.1752318,19.071479 L18.1752318,19.071479 Z M17.5350552,12.9522737 L5.6984106,12.9522737 C5.00966887,12.9522737 4.45337748,12.3915673 4.45337748,11.7072406 L4.45337748,8.77125828 L4.45337748,5.48649007 L4.45337748,5.26573951 L18.7800883,7.23924945 L18.7800883,11.7028256 C18.7800883,12.3959823 18.2193819,12.9522737 17.5350552,12.9522737 L17.5350552,12.9522737 L17.5350552,12.9522737 Z" id="Shape"></path>
                </g>
            </g>
            <g id="country_selector" transform="translate(459.000000, 141.000000)" stroke="#41445E">
                <g id="basic_globe" transform="translate(0.829897, 0.000000)">
                    <path d="M12.6343496,0 C21.705181,0 29.6907216,7.99873448 29.6907216,17.0845527 C29.6907216,26.170371 21.705181,34.1691054 12.6343496,34.1691054 C6.31717482,34.1691054 4.42202237,31.6380606 4.42202237,31.6380606" id="Shape"></path>
                    <ellipse id="Oval" cx="12.6343496" cy="17.0845527" rx="12.6343496" ry="12.6552242"></ellipse>
                    <path d="M12.2727273,34.1311398 L12.2727273,39.2691608" id="Shape"></path>
                    <path d="M6.31717482,39.0909091 L18.9515245,39.0909091" id="Shape"></path>
                </g>
            </g>
            <g id="Operator" transform="translate(159.000000, 431.000000)" fill-rule="nonzero">
                <ellipse id="Oval" fill="#F0EFF2" cx="45" cy="54.1588235" rx="45" ry="44.8411765"></ellipse>
                <path d="M47.6006494,20.9647059 L42.6623377,20.9647059 L23.1019481,93.3337059 C36.8023181,100.935852 53.486169,100.882899 67.1376623,93.1939412 L47.6006494,20.9647059 Z" id="Shape" fill="#FED825"></path>
                <path d="M45.3214286,20.9647059 L42.6623377,20.9647059 L23.1019481,93.3337059 C24.4580877,94.0889365 25.8528399,94.7731603 27.2805195,95.3835882 L45.3214286,20.9647059 Z" id="Shape" fill="#FECF25"></path>
                <ellipse id="Oval" fill="#FED825" cx="45.8123377" cy="11.4315882" rx="5.62792208" ry="5.60805882"></ellipse>
                <path d="M45.8123377,17.0454706 C42.7731019,16.9478909 40.3599993,14.4645807 40.3599993,11.4345 C40.3599993,8.40441929 42.7731019,5.92110908 45.8123377,5.82352941 C43.1684426,8.9656096 43.0736354,13.5172496 45.5844156,16.7659412 L45.8123377,17.0454706 Z" id="Shape" fill="#FECF25"></path>
                <path d="M61.7376623,22.6593529 C61.3995335,22.2772765 61.3498202,21.7205655 61.6149351,21.285 C63.2712268,18.4431549 64.2247861,15.2492261 64.3967532,11.9673529 C64.5860442,8.63494297 63.9979394,5.3041448 62.6785714,2.23623529 C62.4203604,1.62514846 62.7081773,0.921182072 63.3214286,0.663882353 C63.9346798,0.406582634 64.6411396,0.693383756 64.8993506,1.30447059 C66.357085,4.71208088 67.0070242,8.40864075 66.7987013,12.1071176 C66.6071009,15.7640108 65.5454203,19.3230587 63.7012987,22.4904706 C63.3681168,23.0620049 62.6337691,23.2573135 62.0590909,22.9272353 C61.9379068,22.8561437 61.8293087,22.7656368 61.7376623,22.6593529 Z" id="Shape" fill="#FED825"></path>
                <path d="M57.5824675,20.2367647 C57.2452564,19.8570979 57.1932629,19.303673 57.4538961,18.8682353 C58.7315857,16.6843432 59.4706843,14.2293766 59.6103896,11.7052941 C59.7565442,9.05545064 59.2761127,6.40844044 58.2077922,3.97747059 C58.0070813,3.57898276 58.0447097,3.10244732 58.3054945,2.74014351 C58.5662793,2.3778397 59.0071944,2.18954301 59.4503332,2.25123003 C59.893472,2.31291705 60.2657222,2.61441022 60.4168831,3.03405882 C61.6374403,5.80492863 62.1840928,8.82385211 62.0123377,11.8450588 C61.8567864,14.7406043 61.0156782,17.5583496 59.5577922,20.0678824 C59.2246103,20.6394167 58.4902626,20.8347252 57.9155844,20.5046471 C57.7878245,20.4382372 57.6745904,20.3471777 57.5824675,20.2367647 Z" id="Shape" fill="#FED825"></path>
                <path d="M53.4214286,17.82 C53.0970848,17.4321362 53.0481804,16.8844835 53.2987013,16.4456471 C55.1617757,13.1425028 55.3140559,9.14733242 53.7077922,5.71288235 C53.4794308,5.11707571 53.758834,4.44737136 54.3437758,4.18848703 C54.9287176,3.9296027 55.6146874,4.17205096 55.9051948,4.74035294 C57.8305815,8.87183289 57.6368941,13.6752412 55.3850649,17.6394706 C55.2271271,17.9161552 54.9648417,18.1185314 54.6564808,18.2016372 C54.34812,18.2847429 54.0192216,18.2416955 53.7428571,18.0820588 C53.6222294,18.0125555 53.5136836,17.9240587 53.4214286,17.82 Z" id="Shape" fill="#FED825"></path>
                <path d="M29.8636364,22.6593529 C30.2017652,22.2772765 30.2514785,21.7205655 29.9863636,21.285 C28.3300719,18.4431549 27.3765126,15.2492261 27.2045455,11.9673529 C27.0170741,8.63882724 27.6051422,5.312223 28.9227273,2.24788235 C29.1181955,1.84867255 29.0762974,1.37451162 28.8138289,1.01548123 C28.5513605,0.65645085 28.1112875,0.471323748 27.6700264,0.5343137 C27.2287653,0.597303651 26.8585499,0.898099297 26.7077922,1.31611765 C25.2456213,4.72253579 24.5935782,8.41968611 24.8025974,12.1187647 C25.0006858,15.7716634 26.0641207,19.3258874 27.9058442,22.4904706 C28.2390261,23.0620049 28.9733738,23.2573135 29.5480519,22.9272353 C29.6671571,22.8556241 29.7737499,22.7651433 29.8636364,22.6593529 Z" id="Shape" fill="#FED825"></path>
                <path d="M34.0246753,20.2367647 C34.349654,19.8514179 34.3986653,19.3048942 34.1474026,18.8682353 C32.8783104,16.6817419 32.1454279,14.227469 32.0084416,11.7052941 C31.862287,9.05545064 32.3427184,6.40844044 33.411039,3.97747059 C33.6117499,3.57898276 33.5741215,3.10244732 33.3133367,2.74014351 C33.0525519,2.3778397 32.6116367,2.18954301 32.1684979,2.25123003 C31.7253592,2.31291705 31.3531089,2.61441022 31.2019481,3.03405882 C29.9813908,5.80492863 29.4347383,8.82385211 29.6064935,11.8450588 C29.7620448,14.7406043 30.603153,17.5583496 32.061039,20.0678824 C32.2579603,20.4060428 32.607898,20.6273677 32.9987991,20.6609871 C33.3897002,20.6946066 33.7725196,20.5363023 34.0246753,20.2367647 Z" id="Shape" fill="#FED825"></path>
                <path d="M38.1798701,17.82 C38.5075252,17.4335058 38.5566203,16.8837181 38.3025974,16.4456471 C36.439523,13.1425028 36.2872428,9.14733242 37.8935065,5.71288235 C38.1218679,5.11707571 37.8424647,4.44737136 37.2575229,4.18848703 C36.6725811,3.9296027 35.9866114,4.17205096 35.6961039,4.74035294 C33.7790196,8.87520521 33.9791801,13.6772771 36.2337662,17.6394706 C36.4304028,17.976983 36.7788462,18.1987538 37.1688389,18.2346082 C37.5588316,18.2704627 37.9421132,18.115964 38.1974026,17.82 L38.1798701,17.82 Z" id="Shape" fill="#FED825"></path>
            </g>
            <g id="facebook" transform="translate(608.000000, 152.000000)" stroke="#FFFFFF">
                <g id="social">
                    <path d="M8.95673077,0.124815089 L8.95673077,2.87074704 L7.32917668,2.87074704 C6.73482275,2.87074704 6.33398541,2.99556088 6.12665264,3.24519231 C5.91931988,3.49482373 5.81565505,3.86926526 5.81565505,4.36852811 L5.81565505,6.33436575 L8.8530649,6.33436575 L8.44876803,9.41313794 L5.81565505,9.41313794 L5.81565505,17.3076923 L2.64347957,17.3076923 L2.64347957,9.41313794 L0,9.41313794 L0,6.33436575 L2.64347957,6.33436575 L2.64347957,4.06689164 C2.64347957,2.77712928 3.00285097,1.77688503 3.72160457,1.06612888 C4.44035816,0.355372741 5.39753008,0 6.59314904,0 C7.6090796,0 8.3969323,0.0416046135 8.95673077,0.124815089 L8.95673077,0.124815089 L8.95673077,0.124815089 Z" id=""></path>
                </g>
            </g>
            <g id="language_selector" transform="translate(59.000000, 258.000000)" stroke="#0B0033">
                <g id="globe">
                    <path d="M9.00028125,0.24946875 C13.8332812,0.24946875 17.7508125,4.167 17.7505312,9 C17.7508125,13.8332813 13.833,17.7510937 9,17.7505312 C4.16671875,17.7508125 0.24946875,13.8332813 0.24975,9.00028125 C0.24890625,4.167 4.16671875,0.24946875 9.00028125,0.24946875 L9.00028125,0.24946875 L9.00028125,0.24946875 Z" id="Shape"></path>
                    <path d="M9,0.28125 L9,17.71875" id="Shape"></path>
                    <path d="M17.71875,9 L0.28125,9" id="Shape"></path>
                    <path d="M8.4375,0.28125 C8.4375,0.28125 4.5,3.375 4.5,9 C4.5,14.625 8.4375,17.71875 8.4375,17.71875" id="Shape"></path>
                    <path d="M9.5625,0.28125 C9.5625,0.28125 13.5,3.375 13.5,9 C13.5,14.625 9.5625,17.71875 9.5625,17.71875" id="Shape"></path>
                    <path d="M2.25,3.375 C2.25,3.375 3.65625,6.1875 9,6.1875 C14.34375,6.1875 15.75,3.375 15.75,3.375" id="Shape"></path>
                    <path d="M2.25,14.625 C2.25,14.625 3.65625,11.8125 9,11.8125 C14.34375,11.8125 15.75,14.625 15.75,14.625" id="Shape"></path>
                </g>
            </g>
            <g id="Simple" transform="translate(435.000000, 546.000000)">
                <g id="Group" fill-rule="nonzero">
                    <circle id="Oval" fill="#F0EFF2" cx="41.58" cy="42.105" r="41.37"></circle>
                    <circle id="Oval" fill="#FED825" cx="41.58" cy="42.105" r="27.405"></circle>
                </g>
                <polyline id="Shape" stroke="#FFFFFF" stroke-width="5.4022" stroke-linecap="round" points="27.615 45.78 34.23 52.5 55.125 31.605"></polyline>
            </g>
            <g id="Star" transform="translate(456.000000, 249.000000)" fill="#FFFFFF" stroke="#FFFFFF">
                <g id="stars">
                    <polygon id="Star-1" points="20 30 8.24429495 36.1803399 10.4894348 23.0901699 0.978869674 13.8196601 14.1221475 11.9098301 20 0 25.8778525 11.9098301 39.0211303 13.8196601 29.5105652 23.0901699 31.755705 36.1803399"></polygon>
                </g>
            </g>
            <g id="support_icon_white" transform="translate(572.000000, 236.000000)" stroke="#FFFFFF" stroke-width="2">
                <g id="support_icon">
                    <path d="M62.7681559,22.8247839 C62.7681559,26.9558528 61.3713406,30.7748051 58.5776682,34.2817556 C55.7839958,37.7887061 51.9724733,40.560047 47.1429864,42.5958615 C42.3134995,44.6316759 37.0605825,45.6495679 31.3840779,45.6495679 C28.8281649,45.6495679 26.2128512,45.4118121 23.5380585,44.9362934 C19.8527885,47.5516463 15.7217816,49.4536926 11.1449141,50.6424894 C10.0749969,50.9099686 8.79705959,51.1477245 7.31106359,51.3557639 L7.17732465,51.3557639 C6.85040553,51.3557639 6.54578094,51.236886 6.26344171,50.9991266 C5.98110247,50.7613673 5.81021548,50.4493128 5.75077565,50.0629539 C5.72105572,49.9737941 5.70619599,49.8772058 5.70619599,49.7731861 C5.70619599,49.6691664 5.71362586,49.5725781 5.72848582,49.4834184 C5.74334578,49.3942586 5.77306525,49.3051002 5.81764513,49.2159404 C5.86222501,49.1267806 5.89937435,49.0524819 5.92909429,48.9930421 C5.95881418,48.9336023 6.01082329,48.8518737 6.08512306,48.747854 C6.15942288,48.6438343 6.21886182,48.5695356 6.26344171,48.5249557 C6.30802159,48.4803758 6.37489041,48.4060772 6.46405012,48.3020575 C6.55320988,48.1980377 6.61264882,48.1311689 6.64236876,48.101449 C6.79096835,47.9231295 7.13274229,47.5516361 7.66770088,46.9869576 C8.20265941,46.4222791 8.58901259,45.9839169 8.82677194,45.6718577 C9.06453129,45.3597986 9.39887535,44.9288662 9.82981418,44.3790477 C10.260753,43.8292292 10.6322464,43.2571294 10.9443056,42.6627309 C11.2563648,42.0683325 11.5609894,41.4145041 11.8581885,40.7012261 C8.17291853,38.5613919 5.27526986,35.9312185 3.16515559,32.8106269 C1.05504131,29.6900354 0,26.3614544 0,22.8247839 C0,18.6937152 1.39681526,14.8747628 4.19048768,11.3678123 C6.98416012,7.86086182 10.7956826,5.08952092 15.6251695,3.05370645 C20.4546564,1.01789197 25.7075734,-2.75857768e-13 31.3840779,-2.75857768e-13 C37.0605825,-2.75857768e-13 42.3134995,1.01789197 47.1429864,3.05370645 C51.9724733,5.08952092 55.7839958,7.86086182 58.5776682,11.3678123 C61.3713406,14.8747628 62.7681559,18.6937152 62.7681559,22.8247839 L62.7681559,22.8247839 L62.7681559,22.8247839 L62.7681559,22.8247839 L62.7681559,22.8247839 L62.7681559,22.8247839 L62.7681559,22.8247839 Z M76.7215882,44.2453088 C74.6114741,47.3510403 71.7138253,49.9737839 68.0285553,52.1136181 C68.3257547,52.8268961 68.6303788,53.4807245 68.9424382,54.0751229 C69.2544976,54.6695213 69.6259906,55.2416212 70.0569294,55.7914397 C70.4878682,56.3412582 70.8222124,56.7721905 71.0599718,57.0842497 C71.2977312,57.3963089 71.6840847,57.8346711 72.2190429,58.3993496 C72.7540018,58.9640282 73.0957753,59.3355212 73.2443753,59.5138412 C73.2740947,59.5435612 73.3335341,59.6104294 73.4226935,59.7144494 C73.5118535,59.8184694 73.5787224,59.8927676 73.6233024,59.9373476 C73.6678818,59.9819276 73.7273212,60.0562265 73.8016206,60.1602459 C73.8759206,60.2642659 73.9279294,60.3459941 73.9576494,60.4054341 C73.9873694,60.4648741 74.0245188,60.5391724 74.0690988,60.6283324 C74.1136788,60.7174924 74.1433982,60.8066506 74.1582582,60.8958106 C74.1731182,60.98497 74.1805476,61.0815582 74.1805476,61.1855782 C74.1805476,61.2895976 74.1656882,61.3861859 74.1359682,61.4753459 C74.0468082,61.8914247 73.8536318,62.2183388 73.5564329,62.4560982 C73.2592335,62.6938576 72.9323194,62.7978759 72.57568,62.7681559 C71.0896841,62.5601165 69.8117471,62.3223606 68.74183,62.0548812 C64.1649624,60.8660847 60.0339553,58.9640382 56.3486854,56.3486854 C53.6738926,56.8242041 51.0585789,57.0619599 48.5026659,57.0619599 C40.4485678,57.0619599 33.434772,55.1004746 27.4610682,51.1774453 C29.1848235,51.2963249 30.4924804,51.3557639 31.3840779,51.3557639 C36.1689849,51.3557639 40.7606436,50.6870758 45.1591917,49.3496794 C49.5577398,48.012283 53.4807103,46.0953769 56.9282209,43.5989037 C60.6432106,40.8646711 63.4962806,37.7144069 65.4875147,34.1480166 C67.4787494,30.5816263 68.4743518,26.8072532 68.4743518,22.8247839 C68.4743518,20.5363502 68.1325776,18.2776702 67.44902,16.0486762 C71.2828894,18.1587905 74.3142759,20.8038236 76.5432694,23.983855 C78.7722635,27.1638864 79.8867441,30.5816258 79.8867441,34.2371759 C79.8867441,37.8035662 78.8317024,41.1395772 76.7215882,44.2453088 L76.7215882,44.2453088 L76.7215882,44.2453088 L76.7215882,44.2453088 L76.7215882,44.2453088 L76.7215882,44.2453088 L76.7215882,44.2453088 Z" id=""></path>
                </g>
            </g>
            <g id="twitter" transform="translate(193.000000, 365.000000)" stroke="#FFFFFF">
                <g id="social">
                    <path d="M21.5290625,2.74759615 C20.9271064,3.63101403 20.1993793,4.38371083 19.3458594,5.00570913 C19.3548438,5.13191169 19.3593359,5.32121268 19.3593359,5.57361779 C19.3593359,6.74549865 19.1886345,7.91510835 18.8472266,9.08248197 C18.5058186,10.2498556 17.9869761,11.3698865 17.2906836,12.4426082 C16.594391,13.5153299 15.7655907,14.4640884 14.8042578,15.2889123 C13.8429249,16.1137361 12.6839521,16.7717824 11.3273047,17.2630709 C9.9706573,17.7543594 8.5196952,18 6.974375,18 C4.5395972,18 2.3114945,17.3464609 0.29,16.039363 C0.6044547,16.0754209 0.9548418,16.0934495 1.3411719,16.0934495 C3.3626664,16.0934495 5.1640155,15.4714605 6.7452734,14.2274639 C5.8019093,14.209435 4.9573865,13.9187228 4.2116797,13.3553185 C3.4659728,12.7919143 2.9538686,12.0730212 2.6753516,11.1986178 C2.9718374,11.2436901 3.2458581,11.266226 3.4974219,11.266226 C3.8837519,11.266226 4.2655841,11.2166471 4.6429297,11.117488 C3.6366747,10.9101552 2.8033822,10.4076062 2.1430273,9.60982572 C1.4826725,8.81204529 1.1525,7.88582258 1.1525,6.83112981 L1.1525,6.77704327 C1.7634406,7.11959306 2.4192934,7.30438688 3.1200781,7.33143029 C2.5271064,6.93479369 2.0554314,6.41646955 1.7050391,5.77644231 C1.3546467,5.13641507 1.1794531,4.44231143 1.1794531,3.69411058 C1.1794531,2.90083738 1.3771074,2.16616925 1.7724219,1.49008413 C2.8595367,2.83323989 4.1824727,3.90819909 5.7412695,4.71499399 C7.3000664,5.52178889 8.9688974,5.97025195 10.7478125,6.06039663 C10.6759371,5.71784684 10.64,5.38431653 10.64,5.05979567 C10.64,3.85185694 11.0645075,2.8219694 11.9135352,1.97010216 C12.7625628,1.11823492 13.7890174,0.692307692 14.9929297,0.692307692 C16.2507485,0.692307692 17.3108941,1.15203867 18.1733984,2.07151442 C19.1527002,1.88221059 20.0735894,1.53065161 20.9360937,1.01682692 C20.6036702,2.05349076 19.965786,2.85576639 19.0224219,3.42367788 C19.8579729,3.3335332 20.6935114,3.10817488 21.5290625,2.74759615 L21.5290625,2.74759615 L21.5290625,2.74759615 Z" id=""></path>
                </g>
            </g>
            <g id="x_dark" transform="translate(332.000000, 366.000000)" fill="#41445E">
                <g id="Layer_1">
                    <polygon id="Shape" points="15.9668817 0.912387097 15.0545376 0 7.98344086 7.07105376 0.912387097 0 0 0.912387097 7.07105376 7.98344086 0 15.0545376 0.912387097 15.9668817 7.98344086 8.89582796 15.0545376 15.9668817 15.9668817 15.0545376 8.89582796 7.98344086"></polygon>
                </g>
            </g>
            <g id="x_white" transform="translate(468.000000, 367.000000)" fill="#FFFFFF">
                <g id="Layer_1">
                    <polygon id="Shape" points="15.9668817 0.912387097 15.0545376 0 7.98344086 7.07105376 0.912387097 0 0 0.912387097 7.07105376 7.98344086 0 15.0545376 0.912387097 15.9668817 7.98344086 8.89582796 15.0545376 15.9668817 15.9668817 15.0545376 8.89582796 7.98344086"></polygon>
                </g>
            </g>
            <g id="info_icon" transform="translate(612.000000, 373.000000) rotate(180.000000) translate(-612.000000, -373.000000) translate(580.000000, 341.000000)" stroke="#0048AA">
                <g id="Group-2">
                    <circle id="Oval-1" stroke-width="2" cx="32.0001216" cy="32.0001216" r="32.0001216"></circle>
                    <g id="Path-+-Line" transform="translate(30.597726, 10.644135)">
                        <path d="M2.72336759,41.367289 C2.72336759,42.1175283 2.11183804,42.7289728 1.36168379,42.7289728 C0.611444555,42.7289728 0,42.1174433 0,41.367289 C0,40.6170498 0.611529548,40.0056052 1.36168379,40.0056052 C2.11183804,40.0056052 2.72336759,40.6171348 2.72336759,41.367289 L2.72336759,41.367289 Z" id="Path" fill="#0048AA"></path>
                        <path d="M1.40227416,31.8558654 L1.40227416,0.855865446" id="Line" stroke-width="2" stroke-linecap="square"></path>
                    </g>
                </g>
            </g>
            <g id="ding_logo_menu" transform="translate(152.000000, 27.000000)" fill-rule="nonzero">
                <path d="M35.3,13.3 C35.3,15.7 33.4,17.6 31,17.6 C28.6,17.6 26.7,15.7 26.7,13.3 C26.7,10.9 28.6,9 31,9 C33.4,9 35.3,11 35.3,13.3" id="Shape" fill="#FF5ED9"></path>
                <path d="M7.9,30.3 C7.9,33.3 9.8,34.9 12.2,34.9 C14.9,34.9 16.5,32.7 16.5,30.5 C16.5,27.9 15,25.6 12.2,25.6 C9.8,25.7 7.9,27.4 7.9,30.3 Z M16.4,13 L24.2,13 L24.2,40.9 L17.2,40.9 L16.8,38.7 C15,40.8 12.2,41.5 9.8,41.4 C3.6,41 0.1,37.1 0.1,30.4 C0.1,23.9 4.2,19.3 10.4,19.3 C13.1,19.3 15.2,20.1 16.4,21.5 L16.4,13 Z" id="Shape" fill="#0047AA"></path>
                <path d="M52.4,40.9 L52.4,29.2 C52.4,26.6 50.8,25.7 49.4,25.7 C47.5,25.7 45.8,27 45.8,29.8 L45.8,40.9 L38,40.9 L38,19.9 L45,19.9 L45.2,22 C47,19.9 49.7,19.1 51.9,19.2 C56.4,19.2 60.1,21.6 60.1,29.2 L60.1,40.9 L52.4,40.9 Z" id="Shape" fill="#0047AA"></path>
                <rect id="Rectangle-path" fill="#0047AA" x="27.2" y="19.9" width="7.8" height="20.9"></rect>
                <path d="M82.2,37 C84.6,35.2 86.1,32.6 86.1,30 C86.1,23.4 81,19.2 74.5,19.1 L74.3,19.1 C67.8,19.2 62.7,23.4 62.7,30 C62.7,36.6 67.4,40.7 74.5,40.7 C77.4,40.7 78.3,42 78.3,43.6 C78.3,45.1 77,46.4 75.5,46.5 C73,46.7 70.2,46.4 70.3,42.5 L62.9,42.5 C62.5,49 66.8,53 74.4,53 C80.5,53 86.4,50.4 86.4,43.6 C86.4,42.3 86.1,39.3 82.2,37 Z M74.4,34.1 C72.1,34.1 70.3,32.5 70.3,29.9 C70.3,27.1 72.1,25.5 74.4,25.5 C76.7,25.5 78.4,27.5 78.4,29.9 C78.4,32.8 76.5,34.1 74.4,34.1 Z" id="Shape" fill="#0047AA"></path>
                <path d="M103.2,21.4 C102.6,21.4 102,21 101.7,20.4 C100.2,16.3 97.9,12.8 94.7,9.8 C91.5,6.8 87.8,4.6 83.5,3.3 C82.7,3 82.2,2.2 82.5,1.3 C82.8,0.5 83.6,-4.19109192e-15 84.5,0.3 C89.2,1.8 93.4,4.2 96.9,7.5 C100.4,10.8 103,14.8 104.7,19.3 C105,20.1 104.6,21 103.8,21.3 C103.5,21.4 103.3,21.4 103.2,21.4 Z" id="Shape" fill="#FF5ED9"></path>
                <path d="M97.2,23.5 C96.6,23.5 96,23.1 95.7,22.5 C94.6,19.4 92.8,16.6 90.3,14.3 C87.8,11.9 84.8,10.2 81.4,9.2 C80.6,8.9 80.1,8.1 80.4,7.2 C80.7,6.4 81.5,5.9 82.4,6.2 C86.3,7.4 89.7,9.3 92.5,12 C95.3,14.6 97.4,17.8 98.6,21.4 C98.9,22.2 98.5,23.1 97.7,23.4 C97.6,23.5 97.4,23.5 97.2,23.5 Z" id="Shape" fill="#FF5ED9"></path>
                <path d="M91.3,25.6 C90.7,25.6 90.1,25.2 89.8,24.6 C88.1,20 84.4,16.6 79.4,15.1 C78.6,14.9 78.1,14 78.3,13.2 C78.5,12.4 79.4,11.9 80.2,12.1 C86.1,13.8 90.6,18 92.7,23.5 C93,24.3 92.6,25.2 91.8,25.5 C91.7,25.6 91.5,25.6 91.3,25.6 Z" id="Shape" fill="#FF5ED9"></path>
            </g>
            <g id="price-tag" transform="translate(68.500000, 588.500000) scale(-1, 1) translate(-68.500000, -588.500000) translate(56.000000, 576.000000)" fill="#FFFFFF">
                <g id="Capa_1">
                    <path d="M24.6691667,0.122083333 C24.50625,-0.0408333333 24.2429167,-0.0408333333 24.08,0.122083333 L22.5354167,1.66666667 L12.8341667,1.66666667 L0.638333333,13.9629167 C0.360833333,14.2404167 0.207916667,14.61 0.207916667,15.0025 C0.207916667,15.395 0.360833333,15.7645833 0.638333333,16.0420833 L9.16583333,24.5695833 C9.45208333,24.8558333 9.8275,24.9991667 10.20375,24.9991667 C10.5816667,24.9991667 10.9595833,24.8545833 11.2491667,24.5654167 L23.1245833,12.3691667 L23.1245833,2.25583333 L24.6691667,0.71125 C24.8320833,0.548333333 24.8320833,0.285 24.6691667,0.122083333 L24.6691667,0.122083333 Z M22.29125,12.0308333 L10.6558333,23.9804167 C10.4075,24.22875 10.0033333,24.22875 9.755,23.9804167 L1.2275,15.4529167 C0.979166667,15.2045833 0.979166667,14.8004167 1.22875,14.5508333 L13.1816667,2.5 L21.7020833,2.5 L19.6883333,4.51375 C19.35875,4.29541667 18.965,4.16666667 18.54125,4.16666667 C17.3925,4.16666667 16.4579167,5.10125 16.4579167,6.25 C16.4579167,7.39875 17.3925,8.33333333 18.54125,8.33333333 C19.69,8.33333333 20.6245833,7.39875 20.6245833,6.25 C20.6245833,5.82625 20.4958333,5.4325 20.2775,5.10291667 L22.29125,3.08916667 L22.29125,12.0308333 L22.29125,12.0308333 Z M19.79125,6.25 C19.79125,6.93916667 19.2304167,7.5 18.54125,7.5 C17.8520833,7.5 17.29125,6.93916667 17.29125,6.25 C17.29125,5.56083333 17.8520833,5 18.54125,5 C18.73375,5 18.91375,5.0475 19.0766667,5.12541667 L18.2466667,5.95541667 C18.08375,6.11833333 18.08375,6.38166667 18.2466667,6.54458333 C18.3279167,6.62583333 18.4345833,6.66666667 18.54125,6.66666667 C18.6479167,6.66666667 18.7545833,6.62583333 18.8358333,6.54458333 L19.6658333,5.71458333 C19.7441667,5.8775 19.79125,6.0575 19.79125,6.25 L19.79125,6.25 Z" id="Shape"></path>
                </g>
            </g>
            <g id="thumb-up" transform="translate(187.000000, 574.000000)" fill="#FFFFFF">
                <path d="M32.9897717,16.417554 C34.7103222,14.7291367 34.1786988,11.3138849 31.1984986,11.3138849 L23.3570535,11.3190647 C23.6548327,9.68223022 24.0861745,6.96884892 24.069096,6.71266187 C23.9044417,4.28633094 22.3354082,1.33338129 22.2675321,1.21251799 C21.9813575,0.687194245 20.5364717,-0.0250359712 19.0823897,0.280143885 C17.2024398,0.676834532 17.010416,1.85892086 17.0180794,2.18482014 C17.0180794,2.18482014 17.0990929,5.41856115 17.1069753,6.28143885 C16.2081639,8.22733813 13.109071,13.3411511 12.1697529,13.7352518 C11.9451048,13.601223 11.6902409,13.5291367 11.425086,13.5291367 L1.51823585,13.5291367 C0.676790741,13.5291367 0,14.1999281 0,15.0254676 L0.00131373162,28.5217986 C0.0602126994,29.2493525 0.687300594,29.82 1.42802627,29.82 L10.3263685,29.82 C11.1154833,29.82 11.7570222,29.1876259 11.7570222,28.4097842 L11.7570222,27.9617266 C11.7570222,27.9617266 12.0876447,27.9373381 12.237848,28.032518 C12.8099781,28.3905755 13.5169847,28.841223 14.4392243,28.841223 L27.7182046,28.841223 C32.6827964,28.841223 32.1498592,24.497482 31.6964029,23.905036 C32.5352205,23.0048201 33.0539256,21.4169784 32.3458242,20.1625899 C32.8892712,19.5947482 33.8456678,18.0338849 32.9897717,16.417554 L32.9897717,16.417554 Z M10.0207069,28.4071942 L1.42539881,28.4071942 L1.42539881,14.9378417 L10.0207069,14.9378417 L10.0207069,28.4071942 L10.0207069,28.4071942 Z M30.6734439,16.3016547 L30.5924304,16.6351079 C32.8800751,17.2763309 31.6624648,19.8753237 30.0213951,20.0438849 L29.9403816,20.3773381 C32.1338755,20.9272662 31.0874883,23.6033094 29.3693463,23.7861151 L29.2883328,24.1182734 C31.0796059,24.4081295 30.6458555,27.4215108 27.9321239,27.4215108 L14.425649,27.4266906 C13.4718799,27.4266906 12.6030654,26.3553237 11.9015327,26.3553237 L11.2893338,26.3553237 L11.2893338,15.9874101 C12.0523929,15.521223 12.9903972,14.9160432 13.5117297,14.4794245 C14.4968095,13.651295 18.5286519,7.22913669 18.5286519,6.42539568 C18.5286519,5.62165468 18.439756,2.14467626 18.439756,2.14467626 C18.439756,2.14467626 19.2301845,1.14021583 20.995183,1.87294964 C20.995183,1.87294964 22.4805755,4.61848921 22.6320926,6.80654676 C22.6320926,6.80654676 21.9631842,11.3138849 21.6038786,12.7279856 L30.9675008,12.7279856 C33.2680638,12.7305755 32.8290585,15.9682014 30.6734439,16.3016547 L30.6734439,16.3016547 Z" id="Shape"></path>
            </g>
            <g id="green-widget-arrow" transform="translate(461.000000, 471.000000)" fill="#FF5ED9">
                <path d="M19.8796875,0.9440625 C19.4775,0.5278125 18.808125,0.5278125 18.391875,0.9440625 C17.9896875,1.34625 17.9896875,2.015625 18.391875,2.416875 L25.9359375,9.9609375 L1.0415625,9.9609375 C0.46125,9.961875 0,10.423125 0,11.0034375 C0,11.58375 0.46125,12.06 1.0415625,12.06 L25.9359375,12.06 L18.391875,19.59 C17.9896875,20.00625 17.9896875,20.6765625 18.391875,21.0778125 C18.808125,21.4940625 19.4784375,21.4940625 19.8796875,21.0778125 L29.2096875,11.7478125 C29.6259375,11.345625 29.6259375,10.67625 29.2096875,10.275 L19.8796875,0.9440625 L19.8796875,0.9440625 Z" id="Shape"></path>
            </g>
            <g id="green-widget-arrow" transform="translate(325.000000, 578.000000)" fill="#53276A">
                <path d="M19.8796875,0.9440625 C19.4775,0.5278125 18.808125,0.5278125 18.391875,0.9440625 C17.9896875,1.34625 17.9896875,2.015625 18.391875,2.416875 L25.9359375,9.9609375 L1.0415625,9.9609375 C0.46125,9.961875 0,10.423125 0,11.0034375 C0,11.58375 0.46125,12.06 1.0415625,12.06 L25.9359375,12.06 L18.391875,19.59 C17.9896875,20.00625 17.9896875,20.6765625 18.391875,21.0778125 C18.808125,21.4940625 19.4784375,21.4940625 19.8796875,21.0778125 L29.2096875,11.7478125 C29.6259375,11.345625 29.6259375,10.67625 29.2096875,10.275 L19.8796875,0.9440625 L19.8796875,0.9440625 Z" id="Shape"></path>
            </g>
            <g id="checked-2" transform="translate(182.000000, 673.000000)" fill="#00DE89">
                <g id="Group">
                    <polygon id="Shape" points="17.6735625 31.625 34.1735625 15.024625 33.2014375 14.001625 17.1875 29.9908125 9.4235625 22.2145 8.4514375 23.2808125 16.7014375 31.625"></polygon>
                    <path d="M21.9993125,44 L22.0006875,44 C27.8774375,44 33.4015,41.710625 37.55675,37.5560625 C41.712,33.4015 44,27.8760625 43.9993125,21.9993125 C43.9993125,16.1225625 41.7113125,10.5978125 37.5560625,6.44325 C33.4015,2.2886875 27.8774375,0 22.0006875,0 L21.9993125,0 C16.1225625,0 10.5985,2.2886875 6.44325,6.4439375 C2.2886875,10.5991875 1.57652754e-14,16.1239375 0.0006875,22.0006875 C0.0006875,27.8774375 2.2886875,33.4021875 6.4439375,37.55675 C10.5985,41.7113125 16.1225625,44 21.9993125,44 L21.9993125,44 Z M7.4160625,7.4160625 C11.31075,3.5206875 16.490375,1.375 22.0006875,1.375 L22.0020625,1.375 C27.5103125,1.375 32.68925,3.5206875 36.584625,7.415375 C40.48,11.31075 42.625,16.490375 42.6243125,21.9993125 C42.6243125,27.5089375 40.4793125,32.6885625 36.584625,36.5839375 C32.6899375,40.4793125 27.5103125,42.625 22.0006875,42.625 L21.9993125,42.625 L21.9979375,42.625 C16.4896875,42.625 11.31075,40.4793125 7.415375,36.584625 C3.5206875,32.68925 1.375,27.5103125 1.3756875,22.0006875 C1.375,16.4910625 3.5206875,11.3114375 7.4160625,7.4160625 L7.4160625,7.4160625 Z" id="Shape"></path>
                </g>
            </g>
            <g id="white-widget-arrow" transform="translate(597.000000, 471.000000)" fill="#FFFFFF">
                <path d="M19.8796875,0.9440625 C19.4775,0.5278125 18.808125,0.5278125 18.391875,0.9440625 C17.9896875,1.34625 17.9896875,2.015625 18.391875,2.416875 L25.9359375,9.9609375 L1.0415625,9.9609375 C0.46125,9.961875 0,10.423125 0,11.0034375 C0,11.58375 0.46125,12.06 1.0415625,12.06 L25.9359375,12.06 L18.391875,19.59 C17.9896875,20.00625 17.9896875,20.6765625 18.391875,21.0778125 C18.808125,21.4940625 19.4784375,21.4940625 19.8796875,21.0778125 L29.2096875,11.7478125 C29.6259375,11.345625 29.6259375,10.67625 29.2096875,10.275 L19.8796875,0.9440625 L19.8796875,0.9440625 Z" id="Shape"></path>
            </g>
            <g id="info_icon" transform="translate(46.000000, 780.000000)" stroke="#C76175">
                <circle id="Oval-1" cx="22.0000836" cy="22.0000836" r="22.0000836"></circle>
                <g id="Path-+-Line" transform="translate(20.035937, 7.317843)">
                    <path d="M2.37638725,28.4400112 C2.37638725,28.9558007 1.95596068,29.3761688 1.44022964,29.3761688 C0.924440164,29.3761688 0.504072033,28.9557423 0.504072033,28.4400112 C0.504072033,27.9242217 0.924498597,27.5038536 1.44022964,27.5038536 C1.95596068,27.5038536 2.37638725,27.9242802 2.37638725,28.4400112 L2.37638725,28.4400112 Z" id="Path"></path>
                    <path d="M1.5,21.9009075 L1.5,0.588407494" id="Line" stroke-linecap="square"></path>
                </g>
            </g>
            <g id="ding_logo_menu" transform="translate(288.000000, 776.000000)" fill-rule="nonzero">
                <path d="M35.3,13.3 C35.3,15.7 33.4,17.6 31,17.6 C28.6,17.6 26.7,15.7 26.7,13.3 C26.7,10.9 28.6,9 31,9 C33.4,9 35.3,11 35.3,13.3" id="Shape" fill="#FF5ED9"></path>
                <path d="M7.9,30.3 C7.9,33.3 9.8,34.9 12.2,34.9 C14.9,34.9 16.5,32.7 16.5,30.5 C16.5,27.9 15,25.6 12.2,25.6 C9.8,25.7 7.9,27.4 7.9,30.3 Z M16.4,13 L24.2,13 L24.2,40.9 L17.2,40.9 L16.8,38.7 C15,40.8 12.2,41.5 9.8,41.4 C3.6,41 0.1,37.1 0.1,30.4 C0.1,23.9 4.2,19.3 10.4,19.3 C13.1,19.3 15.2,20.1 16.4,21.5 L16.4,13 Z" id="Shape" fill="#FFFFFF"></path>
                <path d="M52.4,40.9 L52.4,29.2 C52.4,26.6 50.8,25.7 49.4,25.7 C47.5,25.7 45.8,27 45.8,29.8 L45.8,40.9 L38,40.9 L38,19.9 L45,19.9 L45.2,22 C47,19.9 49.7,19.1 51.9,19.2 C56.4,19.2 60.1,21.6 60.1,29.2 L60.1,40.9 L52.4,40.9 Z" id="Shape" fill="#FFFFFF"></path>
                <rect id="Rectangle-path" fill="#FFFFFF" x="27.2" y="19.9" width="7.8" height="20.9"></rect>
                <path d="M82.2,37 C84.6,35.2 86.1,32.6 86.1,30 C86.1,23.4 81,19.2 74.5,19.1 L74.3,19.1 C67.8,19.2 62.7,23.4 62.7,30 C62.7,36.6 67.4,40.7 74.5,40.7 C77.4,40.7 78.3,42 78.3,43.6 C78.3,45.1 77,46.4 75.5,46.5 C73,46.7 70.2,46.4 70.3,42.5 L62.9,42.5 C62.5,49 66.8,53 74.4,53 C80.5,53 86.4,50.4 86.4,43.6 C86.4,42.3 86.1,39.3 82.2,37 Z M74.4,34.1 C72.1,34.1 70.3,32.5 70.3,29.9 C70.3,27.1 72.1,25.5 74.4,25.5 C76.7,25.5 78.4,27.5 78.4,29.9 C78.4,32.8 76.5,34.1 74.4,34.1 Z" id="Shape" fill="#FFFFFF"></path>
                <path d="M103.2,21.4 C102.6,21.4 102,21 101.7,20.4 C100.2,16.3 97.9,12.8 94.7,9.8 C91.5,6.8 87.8,4.6 83.5,3.3 C82.7,3 82.2,2.2 82.5,1.3 C82.8,0.5 83.6,-4.19109192e-15 84.5,0.3 C89.2,1.8 93.4,4.2 96.9,7.5 C100.4,10.8 103,14.8 104.7,19.3 C105,20.1 104.6,21 103.8,21.3 C103.5,21.4 103.3,21.4 103.2,21.4 Z" id="Shape" fill="#FF5ED9"></path>
                <path d="M97.2,23.5 C96.6,23.5 96,23.1 95.7,22.5 C94.6,19.4 92.8,16.6 90.3,14.3 C87.8,11.9 84.8,10.2 81.4,9.2 C80.6,8.9 80.1,8.1 80.4,7.2 C80.7,6.4 81.5,5.9 82.4,6.2 C86.3,7.4 89.7,9.3 92.5,12 C95.3,14.6 97.4,17.8 98.6,21.4 C98.9,22.2 98.5,23.1 97.7,23.4 C97.6,23.5 97.4,23.5 97.2,23.5 Z" id="Shape" fill="#FF5ED9"></path>
                <path d="M91.3,25.6 C90.7,25.6 90.1,25.2 89.8,24.6 C88.1,20 84.4,16.6 79.4,15.1 C78.6,14.9 78.1,14 78.3,13.2 C78.5,12.4 79.4,11.9 80.2,12.1 C86.1,13.8 90.6,18 92.7,23.5 C93,24.3 92.6,25.2 91.8,25.5 C91.7,25.6 91.5,25.6 91.3,25.6 Z" id="Shape" fill="#FF5ED9"></path>
            </g>
            <g id="language_selector" transform="translate(467.000000, 793.000000)" stroke="#FFFFFF">
                <g id="globe">
                    <path d="M9.00028125,0.24946875 C13.8332812,0.24946875 17.7508125,4.167 17.7505312,9 C17.7508125,13.8332813 13.833,17.7510937 9,17.7505312 C4.16671875,17.7508125 0.24946875,13.8332813 0.24975,9.00028125 C0.24890625,4.167 4.16671875,0.24946875 9.00028125,0.24946875 L9.00028125,0.24946875 L9.00028125,0.24946875 Z" id="Shape"></path>
                    <path d="M9,0.28125 L9,17.71875" id="Shape"></path>
                    <path d="M17.71875,9 L0.28125,9" id="Shape"></path>
                    <path d="M8.4375,0.28125 C8.4375,0.28125 4.5,3.375 4.5,9 C4.5,14.625 8.4375,17.71875 8.4375,17.71875" id="Shape"></path>
                    <path d="M9.5625,0.28125 C9.5625,0.28125 13.5,3.375 13.5,9 C13.5,14.625 9.5625,17.71875 9.5625,17.71875" id="Shape"></path>
                    <path d="M2.25,3.375 C2.25,3.375 3.65625,6.1875 9,6.1875 C14.34375,6.1875 15.75,3.375 15.75,3.375" id="Shape"></path>
                    <path d="M2.25,14.625 C2.25,14.625 3.65625,11.8125 9,11.8125 C14.34375,11.8125 15.75,14.625 15.75,14.625" id="Shape"></path>
                </g>
            </g>
        </g>
    </g>
</svg>